<svg width="32" height="32" viewBox="0 0 32 32" fill="none" xmlns="http://www.w3.org/2000/svg">
<g clip-path="url(#clip0_5_29)">
<path d="M21 3.18047e-07C21.2708 3.18047e-07 21.5052 0.0989587 21.7031 0.296875L31.7031 10.2969C31.901 10.4948 32 10.7292 32 11C32 11.2708 31.901 11.5052 31.7031 11.7031L27.9062 15.5C28.1667 15.7604 28.4219 16.0104 28.6719 16.25C28.9219 16.4896 29.1406 16.7344 29.3281 16.9844C29.5156 17.2344 29.6719 17.5156 29.7969 17.8281C29.9219 18.1406 29.9844 18.4896 29.9844 18.875C29.9844 19.2917 29.9062 19.6875 29.75 20.0625C29.5938 20.4375 29.3802 20.7656 29.1094 21.0469C28.8385 21.3281 28.5208 21.5521 28.1562 21.7188C27.7917 21.8854 27.401 21.974 26.9844 21.9844C26.9635 22.4115 26.875 22.8021 26.7188 23.1563C26.5625 23.5104 26.3542 23.8229 26.0938 24.0938C25.8333 24.3646 25.5208 24.5781 25.1562 24.7344C24.7917 24.8906 24.401 24.974 23.9844 24.9844C23.974 25.401 23.8854 25.7917 23.7188 26.1563C23.5521 26.5208 23.3281 26.8385 23.0469 27.1094C22.7656 27.3802 22.4375 27.599 22.0625 27.7656C21.6875 27.9323 21.2917 28.0104 20.875 28C20.5417 28 20.2031 27.9427 19.8594 27.8281C19.7448 28.151 19.5938 28.4427 19.4062 28.7031C19.2188 28.9635 18.9896 29.1927 18.7188 29.3906C18.4479 29.5885 18.1615 29.7396 17.8594 29.8438C17.5573 29.9479 17.2292 30 16.875 30C16.6042 30 16.3646 29.9792 16.1562 29.9375C15.9479 29.8958 15.7552 29.8229 15.5781 29.7188C15.401 29.6146 15.224 29.5 15.0469 29.375C14.8698 29.25 14.6875 29.099 14.5 28.9219C14.1354 29.2552 13.7812 29.5156 13.4375 29.7031C13.0938 29.8906 12.6562 29.9896 12.125 30C11.7083 30 11.3125 29.9219 10.9375 29.7656C10.5625 29.6094 10.2344 29.3958 9.95312 29.125C9.67188 28.8542 9.44792 28.5365 9.28125 28.1719C9.11458 27.8073 9.02604 27.4115 9.01562 26.9844C8.60938 26.974 8.22396 26.8906 7.85938 26.7344C7.49479 26.5781 7.17708 26.3646 6.90625 26.0938C6.63542 25.8229 6.42188 25.5052 6.26562 25.1406C6.10938 24.776 6.02604 24.3906 6.01562 23.9844C5.59896 23.974 5.21354 23.8906 4.85938 23.7344C4.50521 23.5781 4.19271 23.3646 3.92188 23.0938C3.65104 22.8229 3.4375 22.5052 3.28125 22.1406C3.125 21.776 3.03646 21.3906 3.01562 20.9844C2.58854 20.974 2.19271 20.8854 1.82812 20.7188C1.46354 20.5521 1.14583 20.3281 0.875 20.0469C0.604167 19.7656 0.390625 19.4427 0.234375 19.0781C0.078125 18.7135 0 18.3177 0 17.8906C0 17.4635 0.078125 17.0625 0.234375 16.6875C0.390625 16.3125 0.619792 15.974 0.921875 15.6719L2.57812 14L0.296875 11.7031C0.0989583 11.5052 0 11.2708 0 11C0 10.7292 0.0989583 10.4948 0.296875 10.2969L10.2969 0.296875C10.4948 0.0989587 10.7292 3.18047e-07 11 3.18047e-07C11.2708 3.18047e-07 11.5052 0.0989587 11.7031 0.296875L13.7656 2.35938C13.901 2.31771 14.1615 2.22917 14.5469 2.09375C14.9323 1.95833 15.3854 1.80729 15.9062 1.64063C16.4271 1.47396 16.9635 1.29167 17.5156 1.09375C18.0677 0.895834 18.599 0.71875 19.1094 0.5625C19.6198 0.40625 20.0417 0.270834 20.375 0.15625C20.7083 0.041667 20.9167 -0.0104163 21 3.18047e-07ZM4.875 15C4.57292 15 4.3125 15.1094 4.09375 15.3281L2.32812 17.0781C2.10938 17.2969 2 17.5625 2 17.875C2 18.1875 2.10417 18.4479 2.3125 18.6563C2.52083 18.8646 2.78646 18.974 3.10938 18.9844C3.43229 18.9844 3.69792 18.8802 3.90625 18.6719L5.67188 16.9219C5.89062 16.7031 6 16.4375 6 16.125C6 15.8125 5.89062 15.5469 5.67188 15.3281C5.45312 15.1094 5.1875 15 4.875 15ZM7.875 18C7.72917 18 7.58854 18.026 7.45312 18.0781C7.31771 18.1302 7.19271 18.2135 7.07812 18.3281L5.32812 20.0938C5.10938 20.3125 5 20.5781 5 20.8906C5 21.1927 5.10938 21.4479 5.32812 21.6563C5.54688 21.8646 5.8125 21.974 6.125 21.9844C6.27083 21.9844 6.41146 21.9583 6.54688 21.9063C6.68229 21.8542 6.80729 21.776 6.92188 21.6719L8.67188 19.9063C8.89062 19.6875 9 19.4271 9 19.125C9 18.8125 8.89062 18.5469 8.67188 18.3281C8.45312 18.1094 8.1875 18 7.875 18ZM10.875 21C10.5729 21 10.3125 21.1094 10.0938 21.3281L8.32812 23.0781C8.10938 23.2969 8 23.5625 8 23.875C8 24.1875 8.10417 24.4479 8.3125 24.6563C8.52083 24.8646 8.78646 24.974 9.10938 24.9844C9.43229 24.9844 9.69792 24.8802 9.90625 24.6719L11.6719 22.9219C11.8906 22.7031 12 22.4375 12 22.125C12 21.8125 11.8906 21.5469 11.6719 21.3281C11.4531 21.1094 11.1875 21 10.875 21ZM11 26.8906C11 27.1927 11.1094 27.4479 11.3281 27.6563C11.5469 27.8646 11.8125 27.974 12.125 27.9844C12.2708 27.9844 12.4115 27.9583 12.5469 27.9063C12.6823 27.8542 12.8073 27.776 12.9219 27.6719L14.6719 25.9063C14.8906 25.6875 15 25.4271 15 25.125C15 24.8125 14.8906 24.5469 14.6719 24.3281C14.4531 24.1094 14.1875 24 13.875 24C13.7292 24 13.5885 24.026 13.4531 24.0781C13.3177 24.1302 13.1927 24.2135 13.0781 24.3281L11.3281 26.0938C11.1094 26.3125 11 26.5781 11 26.8906ZM26.875 20C27.1771 20 27.4375 19.8906 27.6562 19.6719C27.875 19.4531 27.9896 19.1927 28 18.8906C28 18.5781 27.8906 18.3125 27.6719 18.0938L17.7969 8.20312C17.7656 8.17188 17.7135 8.14583 17.6406 8.125C17.5677 8.10417 17.4948 8.08333 17.4219 8.0625C17.349 8.04167 17.2708 8.02604 17.1875 8.01562C17.1042 8.00521 17.0417 8 17 8C16.7292 8 16.474 8.05208 16.2344 8.15625C15.9948 8.26042 15.7812 8.40104 15.5938 8.57812C15.4062 8.75521 15.2604 8.96875 15.1562 9.21875C15.0521 9.46875 15 9.72917 15 10C15 10.5521 14.8958 11.0677 14.6875 11.5469C14.4792 12.026 14.1927 12.4531 13.8281 12.8281C13.4635 13.2031 13.0417 13.4896 12.5625 13.6875C12.0833 13.8854 11.5625 13.9896 11 14C10.5833 14 10.1927 13.9219 9.82812 13.7656C9.46354 13.6094 9.14583 13.3958 8.875 13.125C8.60417 12.8542 8.39062 12.5365 8.23438 12.1719C8.07812 11.8073 8 11.4167 8 11C8 10.75 8.02604 10.474 8.07812 10.1719C8.13021 9.86979 8.21354 9.59896 8.32812 9.35938L11.25 3.5C11.3438 3.33333 11.4844 3.19792 11.6719 3.09375L11 2.42188L2.40625 11L4.51562 13.0938C4.98438 13.0417 5.42708 13.0729 5.84375 13.1875C6.26042 13.3021 6.625 13.4948 6.9375 13.7656C7.25 14.0365 7.5 14.3646 7.6875 14.75C7.875 15.1354 7.97396 15.5677 7.98438 16.0469C8.40104 16.0677 8.79167 16.151 9.15625 16.2969C9.52083 16.4427 9.83333 16.651 10.0938 16.9219C10.3542 17.1927 10.5677 17.5052 10.7344 17.8594C10.901 18.2135 10.9844 18.6094 10.9844 19.0469C11.401 19.0677 11.7917 19.151 12.1562 19.2969C12.5208 19.4427 12.8333 19.651 13.0938 19.9219C13.3542 20.1927 13.5677 20.5052 13.7344 20.8594C13.901 21.2135 13.9844 21.6094 13.9844 22.0469C14.4115 22.0677 14.8073 22.1563 15.1719 22.3125C15.5365 22.4688 15.8542 22.6823 16.125 22.9531C16.3958 23.224 16.6094 23.5469 16.7656 23.9219C16.9219 24.2969 17 24.6979 17 25.125C17 25.5938 16.9062 26.0313 16.7188 26.4375C16.5312 26.8438 16.2604 27.1979 15.9062 27.5C16.0625 27.6458 16.2031 27.7656 16.3281 27.8594C16.4531 27.9531 16.6354 28 16.875 28C17.1771 28 17.4375 27.8906 17.6562 27.6719C17.875 27.4531 17.9896 27.1927 18 26.8906C18 26.5781 17.8906 26.3125 17.6719 26.0938L19.0781 24.6719L20.0938 25.6719C20.3333 25.8906 20.5938 26 20.875 26C21.1771 26 21.4375 25.8906 21.6562 25.6719C21.875 25.4531 21.9896 25.1927 22 24.8906C22 24.5781 21.8906 24.3125 21.6719 24.0938L19.9062 22.3281L21.3281 20.9219L23.0781 22.6719C23.2969 22.8906 23.5625 23 23.875 23C24.1875 23 24.4531 22.8906 24.6719 22.6719C24.8906 22.4531 25 22.1875 25 21.875C25 21.5625 24.8906 21.2969 24.6719 21.0781L22.9062 19.3281L24.3281 17.9063L26.0938 19.6719C26.3125 19.8906 26.5729 20 26.875 20ZM29.5781 11L20.7344 2.14063L12.8594 4.76563L10.1406 10.2031C10.0885 10.2969 10.0521 10.4271 10.0312 10.5938C10.0104 10.7604 10 10.8958 10 11C10 11.2708 10.099 11.5052 10.2969 11.7031C10.4948 11.901 10.7292 12 11 12C11.2812 12 11.5417 11.9479 11.7812 11.8438C12.0208 11.7396 12.2292 11.599 12.4062 11.4219C12.5833 11.2448 12.7292 11.0312 12.8438 10.7812C12.9583 10.5312 13.0104 10.2708 13 10C13 9.44792 13.1042 8.93229 13.3125 8.45312C13.5208 7.97396 13.8073 7.54688 14.1719 7.17188C14.5365 6.79688 14.9583 6.51042 15.4375 6.3125C15.9167 6.11458 16.4375 6.01042 17 6C17.1667 6 17.3438 6.01563 17.5312 6.04688C17.7188 6.07813 17.9167 6.11979 18.125 6.17188C18.3333 6.22396 18.5156 6.29688 18.6719 6.39063C18.8281 6.48438 18.9792 6.59375 19.125 6.71875L26.5 14.0938L29.5781 11Z" fill="#128D95"/>
</g>
<defs>
<clipPath id="clip0_5_29">
<rect width="32" height="32" fill="white"/>
</clipPath>
</defs>
</svg>
