<svg width="32" height="32" viewBox="0 0 32 32" fill="none" xmlns="http://www.w3.org/2000/svg">
<g clip-path="url(#clip0_5_15)">
<path d="M7.74979 13.7967C7.88521 13.7967 8.03625 13.8175 8.20292 13.8592C8.36958 13.9008 8.53625 13.9581 8.70292 14.031C8.86958 14.104 9.03625 14.1717 9.20292 14.2342C9.36958 14.2967 9.52062 14.3592 9.65604 14.4217L9.40604 14.4529C9.32271 14.4633 9.23417 14.4685 9.14042 14.4685C8.96333 14.4685 8.80187 14.4425 8.65604 14.3904C8.51021 14.3383 8.37479 14.2706 8.24979 14.1873C8.12479 14.104 7.99979 14.0415 7.87479 13.9998C7.74979 13.9581 7.63521 13.9269 7.53104 13.906C7.42687 13.906 7.33312 13.9269 7.24979 13.9685C7.16646 14.0102 7.08312 14.0571 6.99979 14.1092C6.99979 14.0675 6.96333 14.0467 6.89042 14.0467C6.96333 13.9738 7.09875 13.9165 7.29667 13.8748C7.49458 13.8331 7.64562 13.8071 7.74979 13.7967ZM9.85917 14.4998C10.2862 14.4998 10.6769 14.5727 11.031 14.7185C10.8852 14.7706 10.7394 14.8123 10.5935 14.8435C10.4477 14.8748 10.2967 14.8956 10.1404 14.906C9.93208 14.906 9.74458 14.8852 9.57792 14.8435C9.63 14.7602 9.68208 14.7081 9.73417 14.6873C9.78625 14.6665 9.82792 14.604 9.85917 14.4998ZM15.9998 -0.000200174C17.4685 -0.000200174 18.88 0.192508 20.2342 0.577925C21.5883 0.963342 22.8592 1.4998 24.0467 2.1873C25.2342 2.8748 26.3175 3.71334 27.2967 4.70292C28.2758 5.69251 29.1092 6.77063 29.7967 7.9373C30.4842 9.10397 31.0258 10.3748 31.4217 11.7498C31.8175 13.1248 32.0102 14.5415 31.9998 15.9998C31.9998 17.4685 31.8071 18.88 31.4217 20.2342C31.0362 21.5883 30.4998 22.8592 29.8123 24.0467C29.1248 25.2342 28.2862 26.3175 27.2967 27.2967C26.3071 28.2758 25.229 29.1092 24.0623 29.7967C22.8956 30.4842 21.6248 31.0258 20.2498 31.4217C18.8748 31.8175 17.4581 32.0102 15.9998 31.9998C14.531 31.9998 13.1196 31.8071 11.7654 31.4217C10.4112 31.0363 9.14042 30.4998 7.95292 29.8123C6.76542 29.1248 5.68208 28.2863 4.70292 27.2967C3.72375 26.3071 2.89042 25.229 2.20292 24.0623C1.51542 22.8956 0.973749 21.6248 0.577915 20.2498C0.182082 18.8748 -0.0106264 17.4581 -0.000209711 15.9998C-0.000209711 14.531 0.192499 13.1196 0.577915 11.7654C0.963332 10.4113 1.49979 9.14042 2.18729 7.95292C2.87479 6.76542 3.71333 5.68209 4.70292 4.70292C5.6925 3.72376 6.77062 2.89042 7.93729 2.20292C9.10396 1.51542 10.3748 0.973758 11.7498 0.577925C13.1248 0.182092 14.5415 -0.0106168 15.9998 -0.000200174ZM27.906 8.67167C27.7602 8.44251 27.6144 8.22376 27.4685 8.01542C27.3227 7.80709 27.1717 7.59355 27.0154 7.3748C26.9946 7.46855 26.9685 7.53626 26.9373 7.57792C26.906 7.61959 26.8852 7.71334 26.8748 7.85917C26.8748 7.95292 26.9112 8.04147 26.9842 8.1248C27.0571 8.20813 27.1508 8.29147 27.2654 8.3748C27.38 8.45813 27.4946 8.52063 27.6092 8.5623C27.7237 8.60397 27.8227 8.64042 27.906 8.67167ZM26.8279 7.14042C26.8279 7.22376 26.8123 7.28105 26.781 7.3123H26.8748C26.9165 7.3123 26.9477 7.31751 26.9685 7.32792L26.8279 7.14042ZM15.9998 29.9998C17.1873 29.9998 18.3487 29.8488 19.4842 29.5467C20.6196 29.2446 21.6925 28.8175 22.7029 28.2654C23.7133 27.7133 24.6508 27.0363 25.5154 26.2342C26.38 25.4321 27.1352 24.5363 27.781 23.5467C27.6456 23.2342 27.5154 22.9165 27.3904 22.5935C27.2654 22.2706 27.2029 21.9373 27.2029 21.5935C27.2029 21.2185 27.2185 20.9165 27.2498 20.6873C27.281 20.4581 27.3175 20.255 27.3592 20.0779C27.4008 19.9008 27.4217 19.7498 27.4217 19.6248C27.4217 19.4998 27.406 19.3383 27.3748 19.1404C27.3435 18.9425 27.255 18.729 27.1092 18.4998C26.9633 18.2706 26.7706 17.9477 26.531 17.531C26.5415 17.4581 26.5571 17.3592 26.5779 17.2342C26.5987 17.1092 26.6196 16.979 26.6404 16.8435C26.6612 16.7081 26.6665 16.5831 26.656 16.4685C26.6456 16.354 26.6196 16.255 26.5779 16.1717C26.3071 16.1404 26.0258 16.0831 25.7342 15.9998C25.4425 15.9165 25.1821 15.7915 24.9529 15.6248L25.0467 15.5467C24.9112 15.5779 24.7758 15.6196 24.6404 15.6717C24.505 15.7238 24.3748 15.781 24.2498 15.8435C24.1248 15.906 23.9894 15.9477 23.8435 15.9685C23.6977 15.9894 23.5571 16.0102 23.4217 16.031L23.1717 15.9998L23.2185 15.8904C23.0727 15.9321 22.9165 15.9842 22.7498 16.0467C22.5831 16.1092 22.4217 16.1404 22.2654 16.1404C22.1612 16.1404 22.0102 16.104 21.8123 16.031C21.6144 15.9581 21.4165 15.8696 21.2185 15.7654C21.0206 15.6613 20.8435 15.5467 20.6873 15.4217C20.531 15.2967 20.4529 15.1769 20.4529 15.0623L20.4842 15.0154C20.4321 14.9529 20.3644 14.8956 20.281 14.8435C20.1977 14.7915 20.1196 14.7394 20.0467 14.6873C19.9737 14.6352 19.906 14.5779 19.8435 14.5154C19.781 14.4529 19.755 14.38 19.7654 14.2967L19.9373 14.156L19.5779 14.1092L19.4529 13.6404C19.4737 13.6925 19.5206 13.7133 19.5935 13.7029C19.6665 13.6925 19.7237 13.6717 19.7654 13.6404L19.2029 13.3435L19.5935 12.3435C19.4477 11.8019 19.4112 11.3852 19.4842 11.0935C19.5571 10.8019 19.6977 10.5623 19.906 10.3748C20.1144 10.1873 20.3435 9.9998 20.5935 9.8123C20.8435 9.6248 21.0987 9.36959 21.3592 9.04667L21.3123 8.85917L22.3435 7.60917L22.5779 7.57792C22.8696 7.57792 23.1977 7.56751 23.5623 7.54667C23.9269 7.52584 24.2967 7.48938 24.6717 7.4373C25.0467 7.38522 25.4165 7.33313 25.781 7.28105C26.1456 7.22897 26.479 7.16126 26.781 7.07792C26.4477 6.68209 26.0987 6.30709 25.7342 5.95292C25.3696 5.59876 24.979 5.26022 24.5623 4.9373C24.4477 4.97897 24.3071 5.03626 24.1404 5.10917C23.9737 5.18209 23.8071 5.27584 23.6404 5.39042C23.4737 5.50501 23.3435 5.63001 23.2498 5.76542C23.156 5.90084 23.0987 6.04147 23.0779 6.1873L23.1717 6.48417C22.9842 6.78626 22.7758 6.97376 22.5467 7.04667C22.3175 7.11959 22.0831 7.16126 21.8435 7.17167C21.604 7.18209 21.354 7.18209 21.0935 7.17167C20.8331 7.16126 20.5831 7.20813 20.3435 7.3123L20.0935 6.78105L20.3279 5.8748L20.0623 5.48417L22.7654 4.64042C22.6508 4.34876 22.4633 4.13001 22.2029 3.98417C21.9425 3.83834 21.656 3.76542 21.3435 3.76542V3.60917L22.2185 3.46855C21.2498 2.98938 20.2446 2.6248 19.2029 2.3748C18.1612 2.1248 17.0935 1.9998 15.9998 1.9998C15.0935 1.9998 14.1977 2.08834 13.3123 2.26542C12.4269 2.44251 11.5727 2.69772 10.7498 3.03105C9.92687 3.36438 9.13 3.78105 8.35917 4.28105C7.58833 4.78105 6.88521 5.34355 6.24979 5.96855C6.52062 5.96855 6.72896 6.03626 6.87479 6.17167C7.02062 6.30709 7.15604 6.45813 7.28104 6.6248C7.40604 6.79147 7.53625 6.94251 7.67167 7.07792C7.80708 7.21334 7.98937 7.28626 8.21854 7.29667L8.46854 7.10917L8.43729 6.76542L8.95292 6.03105L8.54667 4.8748C8.59875 4.84355 8.67687 4.79147 8.78104 4.71855C8.88521 4.64563 8.97375 4.60917 9.04667 4.60917C9.35917 4.60917 9.59875 4.6248 9.76542 4.65605C9.93208 4.6873 10.0779 4.74459 10.2029 4.82792C10.3279 4.91126 10.4373 5.03105 10.531 5.1873C10.6248 5.34355 10.7706 5.54147 10.9685 5.78105L11.531 5.34355C11.6352 5.38522 11.8019 5.45292 12.031 5.54667C12.2602 5.64042 12.4946 5.75501 12.7342 5.89042C12.9737 6.02584 13.1769 6.16647 13.3435 6.3123C13.5102 6.45813 13.5987 6.59355 13.6092 6.71855C13.6092 6.8748 13.5519 6.9998 13.4373 7.09355C13.3227 7.1873 13.1717 7.26542 12.9842 7.32792C12.7967 7.39042 12.604 7.4373 12.406 7.46855C12.2081 7.4998 12.0102 7.54147 11.8123 7.59355C11.6144 7.64563 11.4633 7.69772 11.3592 7.7498C11.255 7.80188 11.1925 7.89042 11.1717 8.01542L12.0779 8.3123C11.8696 8.48938 11.6456 8.65084 11.406 8.79667C11.1665 8.94251 10.9165 9.07792 10.656 9.20292L10.7185 9.46855L9.28104 10.031V10.4685L9.17167 10.5154L9.24979 9.96855L9.18729 9.95292C9.11437 9.95292 9.07271 9.96855 9.06229 9.9998C9.05187 10.031 9.04667 10.0675 9.04667 10.1092C9.04667 10.1508 9.05708 10.1925 9.07792 10.2342C9.09875 10.2758 9.10396 10.3071 9.09354 10.3279L8.89042 10.2185L8.92167 10.281C8.92167 10.3123 8.93729 10.3592 8.96854 10.4217C8.99979 10.4842 9.04146 10.5415 9.09354 10.5935C9.14562 10.6456 9.18729 10.6977 9.21854 10.7498C9.24979 10.8019 9.27062 10.8279 9.28104 10.8279C9.28104 10.8592 9.26021 10.8904 9.21854 10.9217C9.17687 10.9529 9.12479 10.9738 9.06229 10.9842C8.99979 10.9946 8.95812 11.0102 8.93729 11.031C8.91646 11.0519 8.91646 11.0571 8.93729 11.0467C9.08312 11.0467 9.11437 11.0571 9.03104 11.0779C8.94771 11.0988 8.8175 11.1508 8.64042 11.2342C8.46333 11.3175 8.30187 11.4373 8.15604 11.5935C8.01021 11.7498 7.92687 11.979 7.90604 12.281C7.90604 12.4581 7.91125 12.63 7.92167 12.7967C7.93208 12.9633 7.92687 13.1352 7.90604 13.3123C7.76021 12.9165 7.54146 12.6144 7.24979 12.406C6.95812 12.1977 6.60396 12.0935 6.18729 12.0935L5.51542 12.156L5.84354 12.3748C5.66646 12.354 5.48417 12.3331 5.29667 12.3123C5.10917 12.2915 4.91646 12.2863 4.71854 12.2967C4.52062 12.3071 4.34354 12.3488 4.18729 12.4217C4.03104 12.4946 3.87479 12.604 3.71854 12.7498L3.62479 13.4529C3.62479 13.7863 3.69771 14.0571 3.84354 14.2654C3.98937 14.4738 4.24458 14.5831 4.60917 14.5935C4.92167 14.5935 5.22896 14.5467 5.53104 14.4529C5.83312 14.3592 6.13 14.2498 6.42167 14.1248C6.32792 14.354 6.22375 14.5727 6.10917 14.781C5.99458 14.9894 5.91125 15.2185 5.85917 15.4685L6.06229 15.5623C6.31229 15.3956 6.54146 15.3696 6.74979 15.4842C6.95812 15.5988 7.16125 15.7654 7.35917 15.9842C7.55708 16.2029 7.76021 16.4269 7.96854 16.656C8.17687 16.8852 8.40083 17.0519 8.64042 17.156L8.10917 17.4373L6.85917 16.7342C6.86958 16.755 6.88 16.8019 6.89042 16.8748C6.90083 16.9477 6.89562 16.9633 6.87479 16.9217L6.31229 15.9685C5.97896 15.9581 5.62479 15.906 5.24979 15.8123C4.87479 15.7185 4.49458 15.5935 4.10917 15.4373C3.72375 15.281 3.36437 15.1092 3.03104 14.9217C2.69771 14.7342 2.39042 14.5363 2.10917 14.3279L1.99979 15.9998C1.99979 17.2706 2.17167 18.5102 2.51542 19.7185C2.85917 20.9269 3.34354 22.0623 3.96854 23.1248C4.59354 24.1873 5.35917 25.156 6.26542 26.031C7.17167 26.906 8.17687 27.6508 9.28104 28.2654C9.22896 28.0467 9.22375 27.8279 9.26542 27.6092C9.30708 27.3904 9.35917 27.1717 9.42167 26.9529C9.48417 26.7342 9.55187 26.5154 9.62479 26.2967C9.69771 26.0779 9.73417 25.854 9.73417 25.6248C9.73417 25.2915 9.68208 24.9425 9.57792 24.5779C9.47375 24.2133 9.34875 23.8435 9.20292 23.4685C9.05708 23.0935 8.89562 22.7238 8.71854 22.3592C8.54146 21.9946 8.40083 21.6508 8.29667 21.3279C8.1925 21.005 8.10917 20.7029 8.04667 20.4217C7.98417 20.1404 8.01542 19.8956 8.14042 19.6873L7.90604 19.5779C7.96854 19.4321 8.05187 19.2915 8.15604 19.156C8.26021 19.0206 8.36958 18.8852 8.48417 18.7498C8.59875 18.6144 8.68729 18.4685 8.74979 18.3123C8.81229 18.156 8.84875 17.9998 8.85917 17.8435C8.85917 17.7394 8.83833 17.63 8.79667 17.5154C8.755 17.4008 8.71854 17.2915 8.68729 17.1873L9.01542 17.2654C9.1925 16.8592 9.43208 16.5831 9.73417 16.4373C10.0362 16.2915 10.4165 16.2133 10.8748 16.2029C10.9269 16.2029 11.0362 16.2238 11.2029 16.2654C11.3696 16.3071 11.5467 16.3644 11.7342 16.4373C11.9217 16.5102 12.0987 16.5675 12.2654 16.6092C12.4321 16.6508 12.5571 16.6925 12.6404 16.7342C12.6404 16.8071 12.6821 16.854 12.7654 16.8748C12.8487 16.8956 12.8956 16.9321 12.906 16.9842L12.8748 17.1092C12.906 17.1196 12.979 17.156 13.0935 17.2185C13.2081 17.281 13.3331 17.3592 13.4685 17.4529C13.604 17.5467 13.7237 17.63 13.8279 17.7029C13.9321 17.7758 14.005 17.8331 14.0467 17.8748C14.2342 17.8748 14.4894 17.9373 14.8123 18.0623C15.1352 18.1873 15.4894 18.3435 15.8748 18.531C16.2602 18.7185 16.6404 18.9425 17.0154 19.2029C17.3904 19.4633 17.7446 19.7238 18.0779 19.9842C18.4112 20.2446 18.6665 20.505 18.8435 20.7654C19.0206 21.0258 19.1248 21.255 19.156 21.4529L18.6248 22.0154C18.6665 22.5467 18.63 22.9529 18.5154 23.2342C18.4008 23.5154 18.2237 23.7498 17.9842 23.9373C17.7446 24.1248 17.4685 24.281 17.156 24.406C16.8435 24.531 16.505 24.7081 16.1404 24.9373C16.1404 25.1456 16.0883 25.3696 15.9842 25.6092C15.88 25.8488 15.7498 26.0779 15.5935 26.2967C15.4373 26.5154 15.2498 26.6977 15.031 26.8435C14.8123 26.9894 14.5935 27.0623 14.3748 27.0623L13.7185 26.5623C13.7394 26.5831 13.7394 26.6196 13.7185 26.6717C13.6977 26.7238 13.6717 26.7342 13.6404 26.7029C13.7446 26.9008 13.7706 27.13 13.7185 27.3904C13.6665 27.6508 13.5779 27.9165 13.4529 28.1873C13.3279 28.4581 13.1873 28.7133 13.031 28.9529C12.8748 29.1925 12.7342 29.3956 12.6092 29.5623C13.1717 29.7081 13.7342 29.8175 14.2967 29.8904C14.8592 29.9633 15.4269 29.9998 15.9998 29.9998Z" fill="#128D95"/>
</g>
<defs>
<clipPath id="clip0_5_15">
<rect width="32" height="32" fill="white"/>
</clipPath>
</defs>
</svg>
