<svg width="70" height="70" viewBox="0 0 70 70" fill="none" xmlns="http://www.w3.org/2000/svg">
<circle cx="35" cy="35" r="35" fill="#C8D5E5"/>
<path d="M29.9181 43.1704C37.5096 43.1704 43.6639 37.0174 43.6639 29.4259C43.6639 21.8344 37.5083 15.6814 29.9181 15.6814C22.3279 15.6814 16.1723 21.8357 16.1723 29.4259C16.1723 37.0174 22.3266 43.1704 29.9181 43.1704Z" fill="#F0F1F1"/>
<path d="M29.9181 15.6814C22.3266 15.6814 16.1723 21.8357 16.1723 29.4259C16.1723 33.2531 17.7381 36.7129 20.2607 39.204L39.6976 19.7711C38.4207 18.4744 36.8982 17.445 35.2192 16.743C33.5401 16.0411 31.738 15.6793 29.9181 15.6814Z" fill="white"/>
<path d="M34.5 30.2856H29.918C29.69 30.2856 29.4714 30.1951 29.3101 30.0338C29.1489 29.8726 29.0583 29.654 29.0583 29.426V20.8356C29.0583 20.7227 29.0806 20.611 29.1238 20.5067C29.167 20.4023 29.2303 20.3076 29.3101 20.2277C29.39 20.1479 29.4847 20.0846 29.589 20.0414C29.6934 19.9982 29.8051 19.976 29.918 19.976C30.0309 19.976 30.1427 19.9982 30.247 20.0414C30.3513 20.0846 30.4461 20.1479 30.5259 20.2277C30.6058 20.3076 30.6691 20.4023 30.7123 20.5067C30.7555 20.611 30.7777 20.7227 30.7777 20.8356V28.5663H34.5C34.728 28.5663 34.9466 28.6568 35.1079 28.8181C35.2691 28.9793 35.3597 29.1979 35.3597 29.426C35.3597 29.654 35.2691 29.8726 35.1079 30.0338C34.9466 30.1951 34.728 30.2856 34.5 30.2856Z" fill="#DF2C2C"/>
<path d="M30.7777 28.5663V20.8356C30.7777 20.6076 30.6872 20.389 30.5259 20.2277C30.3647 20.0665 30.146 19.976 29.918 19.976C29.69 19.976 29.4714 20.0665 29.3101 20.2277C29.1489 20.389 29.0583 20.6076 29.0583 20.8356V29.426C29.0587 29.5532 29.0875 29.6788 29.1427 29.7935C29.1979 29.9082 29.2781 30.0091 29.3773 30.0888L30.8998 28.5663H30.7777Z" fill="#FA5655"/>
<path d="M40.8 29.4259C40.8 29.5777 40.7397 29.7232 40.6324 29.8305C40.5251 29.9379 40.3795 29.9982 40.2278 29.9982H38.5084C38.3566 29.9982 38.2111 29.9379 38.1037 29.8305C37.9964 29.7232 37.9361 29.5777 37.9361 29.4259C37.9361 29.2741 37.9964 29.1286 38.1037 29.0213C38.2111 28.9139 38.3566 28.8537 38.5084 28.8537H40.2278C40.3794 28.854 40.5248 28.9144 40.632 29.0216C40.7393 29.1289 40.7997 29.2742 40.8 29.4259ZM37.6133 21.732C37.6668 21.785 37.7093 21.8481 37.7383 21.9176C37.7673 21.9871 37.7822 22.0616 37.7822 22.1369C37.7822 22.2122 37.7673 22.2868 37.7383 22.3563C37.7093 22.4258 37.6668 22.4889 37.6133 22.5418L36.3979 23.7559C36.3447 23.8091 36.2816 23.8513 36.2121 23.88C36.1426 23.9088 36.0682 23.9236 35.993 23.9236C35.9178 23.9236 35.8433 23.9088 35.7738 23.88C35.7044 23.8513 35.6412 23.8091 35.5881 23.7559C35.5349 23.7027 35.4927 23.6396 35.4639 23.5701C35.4352 23.5007 35.4204 23.4262 35.4204 23.351C35.4204 23.2758 35.4352 23.2013 35.4639 23.1319C35.4927 23.0624 35.5349 22.9993 35.5881 22.9461L36.8034 21.732C36.9115 21.6258 37.0569 21.5663 37.2084 21.5663C37.3598 21.5663 37.5052 21.6258 37.6133 21.732ZM19.0361 29.4259C19.0361 29.3506 19.051 29.2761 19.0798 29.2066C19.1087 29.1371 19.1509 29.074 19.2042 29.0208C19.2575 28.9676 19.3207 28.9255 19.3903 28.8968C19.4599 28.8682 19.5344 28.8535 19.6097 28.8537H21.3291C21.4741 28.8635 21.6101 28.928 21.7093 29.0343C21.8086 29.1405 21.8639 29.2805 21.8639 29.4259C21.8639 29.5713 21.8086 29.7113 21.7093 29.8175C21.6101 29.9238 21.4741 29.9883 21.3291 29.9982H19.6097C19.5344 29.9983 19.4599 29.9837 19.3903 29.955C19.3207 29.9263 19.2575 29.8842 19.2042 29.831C19.1509 29.7779 19.1087 29.7147 19.0798 29.6452C19.051 29.5757 19.0361 29.5012 19.0361 29.4259ZM22.2242 21.732C22.3317 21.6249 22.4773 21.5647 22.6291 21.5647C22.7809 21.5647 22.9265 21.6249 23.034 21.732L24.2481 22.9461C24.3455 23.0554 24.3975 23.1978 24.3933 23.3442C24.3891 23.4906 24.3291 23.6298 24.2255 23.7334C24.122 23.8369 23.9828 23.8969 23.8364 23.9011C23.69 23.9053 23.5476 23.8534 23.4383 23.7559L22.2229 22.5418C22.1167 22.4338 22.0572 22.2884 22.0572 22.1369C22.0572 21.9855 22.1167 21.84 22.2229 21.732M22.2242 37.1211C22.1176 37.013 22.0578 36.8673 22.0578 36.7155C22.0578 36.5637 22.1176 36.418 22.2242 36.31L23.4383 35.0959C23.505 35.0297 23.587 34.9809 23.6771 34.9538C23.7671 34.9266 23.8624 34.922 23.9547 34.9402C24.0469 34.9585 24.1333 34.9991 24.2061 35.0585C24.279 35.1179 24.3362 35.1943 24.3728 35.281C24.4155 35.3859 24.4265 35.501 24.4044 35.6121C24.3822 35.7232 24.3278 35.8253 24.2481 35.9057L23.034 37.1198C22.9265 37.2269 22.7809 37.2871 22.6291 37.2871C22.4773 37.2871 22.3317 37.2282 22.2242 37.1211Z" fill="#CFD3D4"/>
<path d="M35.6458 45.4621V35.726H31.4852C31.2743 35.7259 31.0669 35.78 30.8829 35.8829C30.6988 35.9859 30.5442 36.1343 30.4339 36.314L27.5779 40.9221C27.4579 41.1166 27.3942 41.3407 27.3941 41.5692V49.0413H50.4469L51.6806 45.3361L35.6458 45.4621Z" fill="#0484AB"/>
<path d="M31.4209 49.4705H27.5109C27.3758 49.4705 27.242 49.4439 27.1172 49.3921C26.9923 49.3404 26.8789 49.2646 26.7833 49.1691C26.6878 49.0735 26.612 48.9601 26.5603 48.8353C26.5085 48.7104 26.4819 48.5766 26.4819 48.4415C26.4819 48.3063 26.5085 48.1725 26.5603 48.0477C26.612 47.9228 26.6878 47.8094 26.7833 47.7139C26.8789 47.6183 26.9923 47.5425 27.1172 47.4908C27.242 47.4391 27.3758 47.4125 27.5109 47.4125H31.4222L31.4209 49.4705ZM51.1084 47.4125H32.5837V49.4705H51.1084V47.4125Z" fill="#E2E4E5"/>
<path d="M31.0534 52.3238C31.4333 52.332 31.8111 52.2642 32.1645 52.1244C32.5179 51.9846 32.8398 51.7757 33.1114 51.5099C33.383 51.2441 33.5987 50.9267 33.7461 50.5764C33.8934 50.226 33.9693 49.8498 33.9693 49.4698C33.9693 49.0898 33.8934 48.7136 33.7461 48.3632C33.5987 48.0129 33.383 47.6955 33.1114 47.4297C32.8398 47.1639 32.5179 46.955 32.1645 46.8152C31.8111 46.6754 31.4333 46.6076 31.0534 46.6158C30.2962 46.6158 29.5701 46.9165 29.0348 47.4519C28.4994 47.9872 28.1987 48.7133 28.1987 49.4705C28.1987 50.2276 28.4994 50.9537 29.0348 51.489C29.5701 52.0244 30.2962 52.3251 31.0534 52.3251" fill="#3E3E3F"/>
<path d="M31.0547 50.6136C31.3576 50.6136 31.648 50.4933 31.8621 50.2791C32.0763 50.065 32.1966 49.7746 32.1966 49.4717C32.1966 49.1689 32.0763 48.8784 31.8621 48.6643C31.648 48.4501 31.3576 48.3298 31.0547 48.3298C30.7519 48.3298 30.4614 48.4501 30.2473 48.6643C30.0331 48.8784 29.9128 49.1689 29.9128 49.4717C29.9128 49.7746 30.0331 50.065 30.2473 50.2791C30.4614 50.4933 30.7519 50.6136 31.0547 50.6136Z" fill="#CFD3D4"/>
<path d="M52.8278 44.6378C52.8271 44.8562 52.74 45.0655 52.5856 45.2199C52.4311 45.3743 52.2219 45.4614 52.0035 45.4621H35.6458V31.3947C35.6458 30.9392 36.0133 30.5704 36.4688 30.5704H52.0035C52.4576 30.5704 52.8278 30.9392 52.8278 31.3947V44.6378Z" fill="#FBE158"/>
<path d="M46.5186 52.3238C46.8985 52.332 47.2763 52.2642 47.6297 52.1244C47.9831 51.9846 48.305 51.7757 48.5766 51.5099C48.8482 51.2441 49.064 50.9267 49.2113 50.5764C49.3586 50.226 49.4345 49.8498 49.4345 49.4698C49.4345 49.0898 49.3586 48.7136 49.2113 48.3632C49.064 48.0129 48.8482 47.6955 48.5766 47.4297C48.305 47.1639 47.9831 46.955 47.6297 46.8152C47.2763 46.6754 46.8985 46.6076 46.5186 46.6158C45.7615 46.6158 45.0354 46.9165 44.5 47.4519C43.9646 47.9872 43.6639 48.7133 43.6639 49.4705C43.6639 50.2276 43.9646 50.9537 44.5 51.489C45.0354 52.0244 45.7615 52.3251 46.5186 52.3251" fill="#3E3E3F"/>
<path d="M46.5186 50.6137C46.8216 50.6137 47.1122 50.4933 47.3265 50.279C47.5407 50.0648 47.6611 49.7742 47.6611 49.4711C47.6611 49.1681 47.5407 48.8775 47.3265 48.6633C47.1122 48.449 46.8216 48.3286 46.5186 48.3286C46.2157 48.3286 45.9253 48.4489 45.7112 48.6631C45.497 48.8772 45.3767 49.1676 45.3767 49.4705C45.3767 49.7733 45.497 50.0638 45.7112 50.2779C45.9253 50.4921 46.2157 50.6137 46.5186 50.6137Z" fill="#CFD3D4"/>
<path d="M33.9278 42.5969H31.0639V43.744H33.9278V42.5969Z" fill="#21B2D1"/>
<path d="M33.9265 37.444V40.8801H28.7723L31.0626 37.444H33.9265Z" fill="#40C9E7"/>
<path d="M35.5369 35.726H31.4852C31.2743 35.7259 31.0669 35.78 30.8829 35.8829C30.6988 35.9859 30.5442 36.1343 30.4339 36.314L27.5779 40.9221C27.4579 41.1166 27.3942 41.3407 27.3941 41.5692V43.8661L35.5369 35.726Z" fill="#059BBF"/>
<path d="M31.0639 37.444L28.7723 40.8801H30.3814L33.8175 37.444H31.0639Z" fill="#6FDAF1"/>
<path d="M50.5361 34.0079C50.5358 34.1596 50.4754 34.3049 50.3681 34.4122C50.2609 34.5194 50.1155 34.5798 49.9639 34.5802H38.5097C38.3579 34.5802 38.2124 34.5199 38.105 34.4126C37.9977 34.3052 37.9374 34.1597 37.9374 34.0079C37.9374 33.8561 37.9977 33.7106 38.105 33.6033C38.2124 33.496 38.3579 33.4357 38.5097 33.4357H49.9639C50.1155 33.436 50.2609 33.4964 50.3681 33.6037C50.4754 33.7109 50.5358 33.8563 50.5361 34.0079ZM50.5361 38.0163C50.5363 38.0916 50.5216 38.1661 50.4929 38.2357C50.4642 38.3053 50.4221 38.3685 50.369 38.4218C50.3158 38.4751 50.2527 38.5173 50.1832 38.5462C50.1136 38.575 50.0391 38.5899 49.9639 38.5899H38.5097C38.3577 38.5899 38.212 38.5295 38.1046 38.4221C37.9971 38.3146 37.9368 38.1689 37.9368 38.0169C37.9368 37.865 37.9971 37.7193 38.1046 37.6118C38.212 37.5044 38.3577 37.444 38.5097 37.444H49.9639C50.1155 37.4444 50.2609 37.5048 50.3681 37.612C50.4754 37.7193 50.5358 37.8646 50.5361 38.0163ZM50.5361 42.026C50.5361 42.1778 50.4758 42.3233 50.3685 42.4306C50.2612 42.5379 50.1156 42.5982 49.9639 42.5982H38.5097C38.3579 42.5982 38.2124 42.5379 38.105 42.4306C37.9977 42.3233 37.9374 42.1778 37.9374 42.026C37.9374 41.8742 37.9977 41.7287 38.105 41.6213C38.2124 41.514 38.3579 41.4537 38.5097 41.4537H49.9639C50.1155 41.4541 50.2609 41.5145 50.3681 41.6217C50.4754 41.729 50.5358 41.8743 50.5361 42.026Z" fill="#F3B607"/>
</svg>
