<svg width="70" height="70" viewBox="0 0 70 70" fill="none" xmlns="http://www.w3.org/2000/svg">
<circle cx="35" cy="35" r="35" fill="#C8D5E5"/>
<path d="M53.3742 32.7909C55.3533 30.8117 54.4508 28.5 53.3742 27.3759L48.6242 22.6259C46.6292 20.6467 44.3333 21.5492 43.2092 22.6259L40.5175 25.3334H36.4167C33.4083 25.3334 31.6667 26.9167 30.78 28.7375L23.75 35.7675V42.1009L22.6258 43.2092C20.6467 45.2042 21.5492 47.5 22.6258 48.6242L27.3758 53.3742C28.2308 54.2292 29.1492 54.5459 30.02 54.5459C31.1442 54.5459 32.1733 53.9917 32.7908 53.3742L37.0658 49.0834H42.75C45.4417 49.0834 46.8033 47.405 47.2942 45.7584C49.0833 45.2834 50.065 43.9217 50.4608 42.5917C52.915 41.9584 53.8333 39.6309 53.8333 38V33.25H52.8992L53.3742 32.7909ZM50.6667 38C50.6667 38.7125 50.3658 39.5834 49.0833 39.5834H47.5V41.1667C47.5 41.8792 47.1992 42.75 45.9167 42.75H44.3333V44.3334C44.3333 45.0459 44.0325 45.9167 42.75 45.9167H35.7675L30.5742 51.11C30.0833 51.5692 29.7983 51.3 29.6242 51.1259L24.89 46.4075C24.4308 45.9167 24.7 45.6317 24.8742 45.4575L26.9167 43.3992V37.0659L30.0833 33.8992V36.4167C30.0833 38.3325 31.35 41.1667 34.8333 41.1667C38.3167 41.1667 39.5833 38.3325 39.5833 36.4167H50.6667V38ZM51.1258 30.5425L48.4342 33.25H36.4167V36.4167C36.4167 37.1292 36.1158 38 34.8333 38C33.5508 38 33.25 37.1292 33.25 36.4167V31.6667C33.25 30.9384 33.5192 28.5 36.4167 28.5H41.8158L45.4258 24.89C45.9167 24.4309 46.2017 24.7 46.3758 24.8742L51.11 29.5925C51.5692 30.0834 51.3 30.3684 51.1258 30.5425Z" fill="#128D95"/>
</svg>
