<svg width="70" height="70" viewBox="0 0 70 70" fill="none" xmlns="http://www.w3.org/2000/svg">
<circle cx="35" cy="35" r="35" fill="#C8D5E5"/>
<path d="M22.4584 47.875C21.4861 46.9027 21 45.7222 21 44.3333H17.6667V22.6666H44.3334V29.3333H49.3334L54.3334 36V44.3333H51C51 45.7222 50.5139 46.9027 49.5417 47.875C48.5695 48.8472 47.3889 49.3333 46 49.3333C44.6111 49.3333 43.4306 48.8472 42.4584 47.875C41.4861 46.9027 41 45.7222 41 44.3333H31C31 45.7222 30.5139 46.9027 29.5417 47.875C28.5695 48.8472 27.3889 49.3333 26 49.3333C24.6111 49.3333 23.4306 48.8472 22.4584 47.875ZM27.1884 45.5216C27.5072 45.2016 27.6667 44.8055 27.6667 44.3333C27.6667 43.8611 27.5067 43.4655 27.1867 43.1466C26.8667 42.8277 26.4711 42.6677 26 42.6666C25.5289 42.6655 25.1334 42.8255 24.8134 43.1466C24.4934 43.4677 24.3334 43.8633 24.3334 44.3333C24.3334 44.8033 24.4934 45.1994 24.8134 45.5216C25.1334 45.8438 25.5289 46.0033 26 46C26.4711 45.9966 26.8672 45.8383 27.1884 45.5216ZM21 41H22.3334C22.8056 40.5 23.3472 40.0972 23.9584 39.7916C24.5695 39.4861 25.25 39.3333 26 39.3333C26.75 39.3333 27.4306 39.4861 28.0417 39.7916C28.6528 40.0972 29.1945 40.5 29.6667 41H41V26H21V41ZM47.1884 45.5216C47.5072 45.2016 47.6667 44.8055 47.6667 44.3333C47.6667 43.8611 47.5067 43.4655 47.1867 43.1466C46.8667 42.8277 46.4711 42.6677 46 42.6666C45.5289 42.6655 45.1334 42.8255 44.8134 43.1466C44.4934 43.4677 44.3334 43.8633 44.3334 44.3333C44.3334 44.8033 44.4934 45.1994 44.8134 45.5216C45.1334 45.8438 45.5289 46.0033 46 46C46.4711 45.9966 46.8672 45.8383 47.1884 45.5216ZM44.3334 37.6666H51.4167L47.6667 32.6666H44.3334V37.6666Z" fill="#128D95"/>
</svg>
