<svg width="70" height="70" viewBox="0 0 70 70" fill="none" xmlns="http://www.w3.org/2000/svg">
<circle cx="35" cy="35" r="35" fill="#C8D5E5"/>
<path d="M55.325 24.2469L35.4125 18.5581C35.2097 18.5 34.997 18.4853 34.7881 18.515L15.0762 21.3312C14.3625 21.4362 13.7101 21.7936 13.2374 22.3385C12.7647 22.8835 12.5031 23.5799 12.5 24.3012V45.6987C12.5031 46.4201 12.7647 47.1165 13.2374 47.6614C13.7101 48.2064 14.3625 48.5638 15.0762 48.6687L34.7881 51.4812C34.8583 51.4922 34.929 51.4985 35 51.5C35.1395 51.4999 35.2784 51.4803 35.4125 51.4419L55.325 45.7531C55.9495 45.5723 56.4988 45.1943 56.8908 44.6755C57.2828 44.1568 57.4965 43.5252 57.5 42.875V27.125C57.4965 26.4748 57.2828 25.8432 56.8908 25.3245C56.4988 24.8057 55.9495 24.4277 55.325 24.2469ZM29 33.5H26V22.8012L33.5 21.7287V48.2712L26 47.1987V36.5H29C29.3978 36.5 29.7794 36.342 30.0607 36.0607C30.342 35.7793 30.5 35.3978 30.5 35C30.5 34.6022 30.342 34.2206 30.0607 33.9393C29.7794 33.658 29.3978 33.5 29 33.5ZM15.5 24.3012L23 23.2287V33.5H20C19.6022 33.5 19.2206 33.658 18.9393 33.9393C18.658 34.2206 18.5 34.6022 18.5 35C18.5 35.3978 18.658 35.7793 18.9393 36.0607C19.2206 36.342 19.6022 36.5 20 36.5H23V46.7712L15.5 45.6987V24.3012ZM36.5 48.0106V21.9894L54.5 27.125V42.875L36.5 48.0106Z" fill="#128D95"/>
</svg>
