<svg width="70" height="70" viewBox="0 0 70 70" fill="none" xmlns="http://www.w3.org/2000/svg">
<circle cx="35" cy="35" r="35" fill="#C8D5E5"/>
<path d="M11 20V23H39.5V45.5H30.266C29.597 42.9215 27.278 41 24.5 41C21.722 41 19.403 42.9215 18.734 45.5H17V38H14V48.5H18.734C19.403 51.0785 21.722 53 24.5 53C27.278 53 29.597 51.0785 30.266 48.5H42.734C43.403 51.0785 45.722 53 48.5 53C51.278 53 53.597 51.0785 54.266 48.5H59V36.266L58.9055 36.0305L55.9055 27.0305L55.58 26H42.5V20H11ZM12.5 26V29H26V26H12.5ZM42.5 29H53.4215L56 36.6875V45.5H54.266C53.597 42.9215 51.278 41 48.5 41C45.722 41 43.403 42.9215 42.734 45.5H42.5V29ZM14 32V35H23V32H14ZM24.5 44C26.1755 44 27.5 45.3245 27.5 47C27.5 48.6755 26.1755 50 24.5 50C22.8245 50 21.5 48.6755 21.5 47C21.5 45.3245 22.8245 44 24.5 44ZM48.5 44C50.1755 44 51.5 45.3245 51.5 47C51.5 48.6755 50.1755 50 48.5 50C46.8245 50 45.5 48.6755 45.5 47C45.5 45.3245 46.8245 44 48.5 44Z" fill="#128D95"/>
</svg>
