<svg width="80" height="80" viewBox="0 0 80 80" fill="none" xmlns="http://www.w3.org/2000/svg">
<circle cx="40" cy="40" r="40" fill="#C2DFE4"/>
<path fill-rule="evenodd" clip-rule="evenodd" d="M57.6001 38.3601C56.9801 32.0001 53.2201 22.0001 41.6002 22.0001C29.9801 22.0001 26.2201 32.0001 25.6001 38.3601C23.4251 39.1856 21.9905 41.2737 22.0001 43.6001V46.4001C22.0001 49.4929 24.5074 52.0001 27.6001 52.0001C30.6929 52.0001 33.2002 49.4928 33.2002 46.4001V43.6001C33.19 41.3239 31.8082 39.2787 29.7001 38.4201C30.1001 34.74 32.0602 26.0001 41.6002 26.0001C51.1402 26.0001 53.0801 34.74 53.4802 38.4201C51.3764 39.2805 50.0015 41.3272 50.0002 43.6001V46.4001C50.0044 47.4538 50.3049 48.4851 50.8672 49.3763C51.4294 50.2674 52.2309 50.9826 53.1802 51.4401C52.3402 53.0201 50.2001 55.1601 44.9401 55.8C43.8887 54.2035 41.8544 53.574 40.085 54.2979C38.3156 55.0216 37.3057 56.8963 37.6747 58.7721C38.0437 60.6478 39.6884 62.0001 41.6002 62.0001C42.3409 61.9959 43.066 61.7862 43.6945 61.3942C44.3231 61.0023 44.8305 60.4435 45.1601 59.7801C53.7401 58.8 56.4802 54.3801 57.3401 51.78C59.6667 51.0264 61.2315 48.8456 61.2001 46.4001V43.6001C61.2097 41.2737 59.7751 39.1856 57.6001 38.3601ZM29.2001 46.4001C29.2001 47.2837 28.4838 48 27.6001 48C26.7164 48 26.0002 47.2838 26.0002 46.4001V43.6001C25.9985 43.3889 26.0387 43.1795 26.1184 42.984C26.1981 42.7885 26.3157 42.6106 26.4644 42.4608C26.6132 42.3109 26.7901 42.1919 26.985 42.1108C27.1799 42.0296 27.389 41.9878 27.6001 41.9878C27.8113 41.9878 28.0204 42.0296 28.2153 42.1108C28.4102 42.1919 28.5871 42.3109 28.7359 42.4608C28.8846 42.6106 29.0022 42.7885 29.0819 42.984C29.1615 43.1795 29.2017 43.3889 29.2001 43.6001V46.4001ZM54.0001 43.6001C54.0001 42.7164 54.7164 42 55.6001 42C56.4838 42 57.2002 42.7164 57.2002 43.6001V46.4001C57.2002 47.2837 56.4838 48 55.6001 48C54.7164 48 54.0001 47.2838 54.0001 46.4001V43.6001Z" fill="#128D95"/>
</svg>
