<svg width="70" height="70" viewBox="0 0 70 70" fill="none" xmlns="http://www.w3.org/2000/svg">
<circle cx="35" cy="35" r="35" fill="#C8D5E5"/>
<path d="M18.9542 48.9967C19.0298 50.0456 19.4806 51.0321 20.2243 51.7757C20.9679 52.5194 21.9544 52.9702 23.0033 53.0458C25.7667 53.2658 30.095 53.5 36 53.5C41.9042 53.5 46.2333 53.2658 48.9967 53.0458C50.0456 52.9702 51.0321 52.5194 51.7757 51.7757C52.5194 51.0321 52.9702 50.0456 53.0458 48.9967C53.2658 46.2333 53.5 41.905 53.5 36C53.5 30.0958 53.2658 25.7667 53.0458 23.0033C52.9702 21.9544 52.5194 20.9679 51.7757 20.2243C51.0321 19.4806 50.0456 19.0298 48.9967 18.9542C46.2333 18.7342 41.905 18.5 36 18.5C30.0958 18.5 25.7667 18.7342 23.0033 18.9542C21.9544 19.0298 20.9679 19.4806 20.2243 20.2243C19.4806 20.9679 19.0298 21.9544 18.9542 23.0033C18.7342 25.7667 18.5 30.095 18.5 36C18.5 41.9042 18.7342 46.2333 18.9542 48.9967Z" stroke="#128D95" stroke-width="3" stroke-linecap="round"/>
<path d="M41.5633 18.5742C41.5258 22.1242 41.2683 25.7559 41.1192 27.6001C41.1081 27.7361 41.0634 27.8673 40.9889 27.9818C40.9145 28.0962 40.8128 28.1904 40.6929 28.2557C40.573 28.321 40.4387 28.3555 40.3022 28.3559C40.1657 28.3564 40.0312 28.3229 39.9108 28.2584L36.1942 26.2926C36.1342 26.2609 36.0674 26.2443 35.9996 26.2443C35.9318 26.2443 35.865 26.2609 35.805 26.2926L32.09 28.2592C31.9697 28.3237 31.8352 28.3572 31.6986 28.3568C31.5621 28.3563 31.4278 28.3219 31.308 28.2565C31.1881 28.1912 31.0863 28.0971 31.0119 27.9826C30.9375 27.8682 30.8927 27.737 30.8817 27.6009C30.7317 25.7559 30.475 22.1242 30.4367 18.5742" stroke="#128D95" stroke-width="3" stroke-linecap="round" stroke-linejoin="round"/>
<path d="M46 46H38.5M46 39.3334H41.8333" stroke="#128D95" stroke-width="3" stroke-linecap="round"/>
</svg>
