<svg width="80" height="80" viewBox="0 0 80 80" fill="none" xmlns="http://www.w3.org/2000/svg">
<circle cx="40" cy="40" r="40" fill="#C2DFE4"/>
<path d="M58.66 54.07C58.4088 55.196 57.7861 56.2048 56.892 56.934C55.9152 57.9247 54.7513 58.7113 53.4679 59.2483C52.1845 59.7853 50.8072 60.0619 49.416 60.062H48.766C45.846 59.9035 42.987 59.1644 40.356 57.888H40.336C39.726 57.604 39.096 57.32 38.486 56.974C35.4148 55.252 32.5979 53.1115 30.116 50.614C26.8951 47.5887 24.252 44.0022 22.316 40.03C21.2871 37.8531 20.6004 35.5304 20.28 33.144C19.8089 30.646 20.0923 28.0643 21.094 25.728C21.7264 24.674 22.4988 23.7105 23.39 22.864C23.791 22.4105 24.2813 22.0446 24.8302 21.7893C25.3791 21.5339 25.9748 21.3946 26.58 21.38C27.2382 21.4527 27.8754 21.6555 28.4546 21.9765C29.0338 22.2975 29.5435 22.7304 29.954 23.25C30.868 24.244 31.984 25.28 32.9 26.236L34.16 27.476C34.9 28.132 35.358 29.048 35.44 30.036C35.44 30.942 35.106 31.816 34.504 32.494C34.1141 32.9682 33.7003 33.4221 33.264 33.854L32.858 34.28C32.622 34.5 32.442 34.772 32.33 35.074C32.23 35.3713 32.19 35.676 32.21 35.988C32.532 36.85 33.038 37.634 33.69 38.284C34.708 39.664 35.724 40.864 36.76 42.164C38.6339 44.3395 40.8578 46.1868 43.34 47.63C43.594 47.816 43.886 47.94 44.196 47.994C44.464 48.014 44.736 47.974 44.988 47.874C45.698 47.456 46.328 46.92 46.856 46.288C47.566 45.4185 48.5854 44.8579 49.7 44.724C50.7726 44.7387 51.7958 45.1773 52.546 45.944C52.952 46.288 53.398 46.756 53.826 47.204L54.434 47.832L55.064 48.442L56.142 49.538C56.7847 50.1087 57.3873 50.7187 57.95 51.368C58.514 52.148 58.768 53.114 58.66 54.07ZM51.368 40.152C50.9651 40.1478 50.5799 39.9859 50.295 39.701C50.0101 39.4161 49.8482 39.0309 49.844 38.628C49.8461 37.4776 49.6211 36.338 49.1818 35.2747C48.7425 34.2115 48.0976 33.2454 47.2841 32.4319C46.4706 31.6184 45.5046 30.9735 44.4413 30.5342C43.378 30.0949 42.2384 29.8699 41.088 29.872C40.6838 29.872 40.2962 29.7114 40.0104 29.4256C39.7246 29.1398 39.564 28.7522 39.564 28.348C39.564 27.9438 39.7246 27.5562 40.0104 27.2704C40.2962 26.9846 40.6838 26.824 41.088 26.824C42.6388 26.8216 44.1748 27.1253 45.608 27.7177C47.0412 28.3101 48.3434 29.1795 49.44 30.276C50.5366 31.3726 51.4059 32.6748 51.9983 34.108C52.5907 35.5412 52.8944 37.0772 52.892 38.628C52.8925 38.8283 52.8535 39.0267 52.7771 39.2118C52.7007 39.397 52.5884 39.5652 52.4468 39.7068C52.3052 39.8484 52.137 39.9607 51.9518 40.0371C51.7667 40.1135 51.5683 40.1525 51.368 40.152Z" fill="#128D95"/>
<path d="M58.418 39.44C58.0154 39.4359 57.6305 39.2742 57.3457 38.9898C57.0608 38.7053 56.8987 38.3206 56.894 37.918C56.8972 35.9578 56.5138 34.0162 55.7657 32.2044C55.0177 30.3925 53.9198 28.7459 52.5347 27.3588C51.1497 25.9717 49.5047 24.8714 47.694 24.1207C45.8832 23.37 43.9422 22.9837 41.982 22.984C41.7774 22.9914 41.5733 22.9575 41.3821 22.8843C41.1908 22.8111 41.0163 22.7001 40.8689 22.558C40.7215 22.4158 40.6042 22.2454 40.5241 22.0569C40.4441 21.8685 40.4028 21.6658 40.4028 21.461C40.4028 21.2562 40.4441 21.0535 40.5241 20.8651C40.6042 20.6766 40.7215 20.5062 40.8689 20.364C41.0163 20.2219 41.1908 20.1109 41.3821 20.0377C41.5733 19.9645 41.7774 19.9306 41.982 19.938C44.3422 19.938 46.6793 20.4032 48.8596 21.307C51.0399 22.2109 53.0207 23.5356 54.6887 25.2054C56.3567 26.8753 57.6792 28.8576 58.5806 31.0389C59.482 33.2202 59.9446 35.5578 59.942 37.918C59.9425 38.1183 59.9035 38.3167 59.8271 38.5018C59.7507 38.687 59.6384 38.8552 59.4968 38.9968C59.3552 39.1384 59.187 39.2507 59.0018 39.3271C58.8167 39.4035 58.6183 39.4405 58.418 39.44Z" fill="#128D95"/>
</svg>
