<svg width="70" height="70" viewBox="0 0 70 70" fill="none" xmlns="http://www.w3.org/2000/svg">
<circle cx="35" cy="35" r="35" fill="#C8D5E5"/>
<g clip-path="url(#clip0_12_23)">
<path d="M31.1233 53.345C27.8146 52.6453 24.7566 51.0637 22.2735 48.7677C19.7904 46.4717 17.9746 43.5467 17.0185 40.3028C16.0624 37.0588 16.0015 33.6166 16.8423 30.3409C17.6832 27.0651 19.3944 24.0778 21.7948 21.6954C24.1952 19.313 27.1953 17.6243 30.4772 16.8081C33.7592 15.9919 37.2008 16.0786 40.4375 17.0592C43.6742 18.0397 46.5854 19.8774 48.8627 22.3777C51.14 24.878 52.6986 27.9477 53.3733 31.2617" stroke="#128D95" stroke-width="3" stroke-linecap="round" stroke-linejoin="round"/>
<path d="M23.3733 49.6783L25.04 41.2616H26.84C27.2201 41.2629 27.5954 41.1763 27.9366 41.0087C28.2777 40.841 28.5755 40.5967 28.8067 40.2949C29.0448 40.0001 29.2097 39.6531 29.2879 39.2823C29.3661 38.9115 29.3554 38.5275 29.2567 38.1616L28.0067 33.1616C27.8757 32.6196 27.5661 32.1374 27.1277 31.7927C26.6893 31.448 26.1476 31.261 25.59 31.2616H16.7067M50.04 23.7616H43.24C42.6823 23.761 42.1407 23.948 41.7023 24.2927C41.2639 24.6374 40.9543 25.1196 40.8233 25.6616L40.3567 27.4949M41.2 42.4833C41.2 43.1463 41.4634 43.7822 41.9322 44.251C42.4011 44.7199 43.037 44.9833 43.7 44.9833C44.363 44.9833 44.9989 44.7199 45.4678 44.251C45.9366 43.7822 46.2 43.1463 46.2 42.4833C46.2 41.8202 45.9366 41.1843 45.4678 40.7155C44.9989 40.2467 44.363 39.9833 43.7 39.9833C43.037 39.9833 42.4011 40.2467 41.9322 40.7155C41.4634 41.1843 41.2 41.8202 41.2 42.4833Z" stroke="#128D95" stroke-width="3" stroke-linecap="round" stroke-linejoin="round"/>
<path d="M45.8167 32.8166L46.6167 35.2333C46.7406 35.6322 47.0097 35.97 47.3708 36.1799C47.732 36.3898 48.1587 36.4564 48.5667 36.3666L51.0167 35.7999C51.4827 35.6928 51.9707 35.7381 52.409 35.9291C52.8474 36.1201 53.2128 36.4468 53.4517 36.861C53.6905 37.2752 53.7901 37.7551 53.7358 38.2302C53.6815 38.7052 53.4761 39.1503 53.15 39.4999L51.4833 41.3499C51.1975 41.6581 51.0387 42.0629 51.0387 42.4833C51.0387 42.9036 51.1975 43.3084 51.4833 43.6166L53.15 45.4666C53.4761 45.8162 53.6815 46.2613 53.7358 46.7364C53.7901 47.2114 53.6905 47.6913 53.4517 48.1056C53.2128 48.5198 52.8474 48.8464 52.409 49.0374C51.9707 49.2284 51.4827 49.2737 51.0167 49.1666L48.5667 48.5999C48.1587 48.5101 47.732 48.5768 47.3708 48.7866C47.0097 48.9965 46.7406 49.3344 46.6167 49.7333L45.8667 52.1499C45.7361 52.6107 45.4588 53.0163 45.0767 53.3051C44.6947 53.5939 44.2289 53.7502 43.75 53.7502C43.2711 53.7502 42.8053 53.5939 42.4233 53.3051C42.0412 53.0163 41.7639 52.6107 41.6333 52.1499L40.8833 49.7333C40.7594 49.3344 40.4903 48.9965 40.1292 48.7866C39.768 48.5768 39.3413 48.5101 38.9333 48.5999L36.4833 49.1666C36.0173 49.2737 35.5293 49.2284 35.0909 49.0374C34.6526 48.8464 34.2872 48.5198 34.0483 48.1056C33.8095 47.6913 33.7099 47.2114 33.7642 46.7364C33.8185 46.2613 34.0238 45.8162 34.35 45.4666L36.0167 43.6166C36.3025 43.3084 36.4613 42.9036 36.4613 42.4833C36.4613 42.0629 36.3025 41.6581 36.0167 41.3499L34.35 39.4999C34.0238 39.1503 33.8185 38.7052 33.7642 38.2302C33.7099 37.7551 33.8095 37.2752 34.0483 36.861C34.2872 36.4468 34.6526 36.1201 35.0909 35.9291C35.5293 35.7381 36.0173 35.6928 36.4833 35.7999L38.9333 36.3666C39.3413 36.4564 39.768 36.3898 40.1292 36.1799C40.4903 35.97 40.7594 35.6322 40.8833 35.2333L41.6167 32.8166C41.7564 32.369 42.0356 31.9778 42.4133 31.7C42.7911 31.4222 43.2477 31.2723 43.7167 31.2723C44.1856 31.2723 44.6422 31.4222 45.02 31.7C45.3978 31.9778 45.6769 32.369 45.8167 32.8166Z" stroke="#128D95" stroke-width="3" stroke-linecap="round" stroke-linejoin="round"/>
</g>
<defs>
<clipPath id="clip0_12_23">
<rect width="40" height="40" fill="white" transform="translate(15 15)"/>
</clipPath>
</defs>
</svg>
