<svg width="32" height="32" viewBox="0 0 32 32" fill="none" xmlns="http://www.w3.org/2000/svg">
<circle cx="16" cy="16" r="16" fill="#128D95"/>
<path d="M24.7081 22.566C24.5909 23.0915 24.3003 23.5622 23.883 23.9025C23.4272 24.3648 22.8841 24.732 22.2851 24.9826C21.6862 25.2331 21.0435 25.3622 20.3942 25.3623H20.0909C18.7283 25.2883 17.394 24.9434 16.1662 24.3477H16.1569C15.8722 24.2152 15.5782 24.0827 15.2936 23.9212C13.8604 23.1176 12.5458 22.1187 11.3876 20.9532C9.88449 19.5414 8.65104 17.8677 7.74757 16.014C7.26742 14.9981 6.94693 13.9142 6.79744 12.8005C6.5776 11.6348 6.70984 10.43 7.1773 9.33974C7.47242 8.84785 7.83286 8.39825 8.24877 8.0032C8.43592 7.79157 8.66472 7.62083 8.92087 7.50167C9.17702 7.3825 9.45501 7.31748 9.73744 7.31067C10.0446 7.34461 10.342 7.43924 10.6123 7.58904C10.8825 7.73885 11.1204 7.94086 11.312 8.18334C11.7385 8.6472 12.2593 9.13067 12.6868 9.5768L13.2748 10.1555C13.6201 10.4616 13.8338 10.8891 13.8721 11.3501C13.8721 11.7729 13.7162 12.1808 13.4353 12.4972C13.2534 12.7185 13.0602 12.9303 12.8566 13.1319L12.6672 13.3307C12.557 13.4333 12.473 13.5603 12.4208 13.7012C12.3741 13.84 12.3554 13.9821 12.3648 14.1277C12.515 14.53 12.7512 14.8959 13.0554 15.1992C13.5305 15.8432 14.0046 16.4032 14.4881 17.0099C15.3626 18.0251 16.4004 18.8872 17.5588 19.5607C17.6773 19.6475 17.8136 19.7053 17.9582 19.7305C18.0833 19.7399 18.2102 19.7212 18.3278 19.6745C18.6592 19.4795 18.9532 19.2293 19.1996 18.9344C19.5309 18.5286 20.0066 18.267 20.5268 18.2045C21.0273 18.2114 21.5048 18.4161 21.8549 18.7739C22.0444 18.9344 22.2525 19.1528 22.4522 19.3619L22.736 19.6549L23.03 19.9396L23.533 20.4511C23.8329 20.7174 24.1142 21.002 24.3768 21.3051C24.64 21.6691 24.7585 22.1199 24.7081 22.566ZM21.3052 16.0709C21.1172 16.069 20.9374 15.9934 20.8044 15.8605C20.6715 15.7275 20.5959 15.5478 20.594 15.3597C20.595 14.8229 20.4899 14.2911 20.2849 13.7949C20.0799 13.2987 19.779 12.8478 19.3994 12.4682C19.0197 12.0886 18.5689 11.7876 18.0727 11.5826C17.5765 11.3776 17.0447 11.2726 16.5078 11.2736C16.3192 11.2736 16.1383 11.1987 16.0049 11.0653C15.8716 10.9319 15.7966 10.751 15.7966 10.5624C15.7966 10.3738 15.8716 10.1929 16.0049 10.0595C16.1383 9.92613 16.3192 9.8512 16.5078 9.8512C17.2315 9.8501 17.9483 9.99182 18.6172 10.2683C19.286 10.5447 19.8937 10.9504 20.4054 11.4621C20.9172 11.9739 21.3229 12.5816 21.5993 13.2504C21.8757 13.9192 22.0175 14.636 22.0164 15.3597C22.0166 15.4532 21.9984 15.5458 21.9627 15.6322C21.9271 15.7186 21.8747 15.7971 21.8086 15.8632C21.7425 15.9293 21.664 15.9816 21.5776 16.0173C21.4912 16.053 21.3986 16.0712 21.3052 16.0709Z" fill="#FCFCFE"/>
<path d="M24.5952 15.7387C24.4073 15.7368 24.2277 15.6614 24.0947 15.5286C23.9618 15.3959 23.8862 15.2163 23.884 15.0285C23.8854 14.1137 23.7065 13.2076 23.3575 12.3621C23.0084 11.5166 22.496 10.7482 21.8497 10.1008C21.2033 9.45353 20.4356 8.94003 19.5906 8.58971C18.7456 8.23939 17.8398 8.05914 16.925 8.05926C16.8295 8.06272 16.7343 8.0469 16.6451 8.01274C16.5558 7.97859 16.4744 7.92679 16.4056 7.86045C16.3368 7.79411 16.2821 7.71459 16.2447 7.62663C16.2073 7.53868 16.1881 7.44409 16.1881 7.34853C16.1881 7.25296 16.2073 7.15838 16.2447 7.07042C16.2821 6.98247 16.3368 6.90295 16.4056 6.83661C16.4744 6.77027 16.5558 6.71847 16.6451 6.68431C16.7343 6.65016 16.8295 6.63433 16.925 6.6378C18.0265 6.6378 19.1171 6.85489 20.1346 7.27668C21.1521 7.69846 22.0764 8.31666 22.8548 9.09593C23.6332 9.8752 24.2504 10.8003 24.6711 11.8182C25.0917 12.8361 25.3076 13.927 25.3064 15.0285C25.3066 15.1219 25.2884 15.2145 25.2527 15.3009C25.2171 15.3873 25.1647 15.4658 25.0986 15.5319C25.0325 15.598 24.954 15.6504 24.8676 15.686C24.7812 15.7217 24.6886 15.739 24.5952 15.7387Z" fill="#FCFCFE"/>
</svg>
