<svg width="70" height="70" viewBox="0 0 70 70" fill="none" xmlns="http://www.w3.org/2000/svg">
<circle cx="35" cy="35" r="35" fill="#C8D5E5"/>
<path d="M46.312 31.4685C46.4059 30.7679 46.4535 30.0758 46.4546 29.3921C46.4546 23.0659 41.3271 17.9375 35 17.9375C28.6729 17.9375 23.5454 23.0659 23.5454 29.3921C23.5454 38.3618 32.2954 49.1776 34.5791 51.821C34.6448 51.8971 34.7262 51.9582 34.8176 52C34.909 52.0418 35.0084 52.0635 35.1089 52.0635C35.2095 52.0635 35.3088 52.0418 35.4003 52C35.4917 51.9582 35.573 51.8971 35.6387 51.821C36.9057 50.33 40.2202 46.1948 42.8487 41.2554" stroke="#128D95" stroke-width="2" stroke-linecap="round" stroke-linejoin="round"/>
<path d="M33.6875 37.6223C33.6875 38.0864 33.5031 38.5316 33.1749 38.8598C32.8467 39.1879 32.4016 39.3723 31.9375 39.3723C31.4734 39.3723 31.0283 39.1879 30.7001 38.8598C30.3719 38.5316 30.1875 38.0864 30.1875 37.6223M33.6875 37.6223C33.6875 37.1582 33.5031 36.7131 33.1749 36.3849C32.8467 36.0567 32.4016 35.8723 31.9375 35.8723C31.4734 35.8723 31.0283 36.0567 30.7001 36.3849C30.3719 36.7131 30.1875 37.1582 30.1875 37.6223M33.6875 37.6223H40.6884M30.1875 37.6223H28.4375V31.4973H27.5625M44.1884 37.6223C44.1884 38.0864 44.004 38.5316 43.6758 38.8598C43.3476 39.1879 42.9025 39.3723 42.4384 39.3723C41.9742 39.3723 41.5291 39.1879 41.2009 38.8598C40.8728 38.5316 40.6884 38.0864 40.6884 37.6223M44.1884 37.6223C44.1884 37.1582 44.004 36.7131 43.6758 36.3849C43.3476 36.0567 42.9025 35.8723 42.4384 35.8723C41.9742 35.8723 41.5291 36.0567 41.2009 36.3849C40.8728 36.7131 40.6884 37.1582 40.6884 37.6223M44.1884 37.6223H45.9384V33.2473L41.5634 28.8723M38.0625 29.7473V27.9973H25.8125M41.5625 28.8714H38.0625V37.6223M28.4375 29.7473H26.6875M43.3125 30.6223H39.8125V33.6848H45.9384" stroke="#128D95" stroke-width="2" stroke-linecap="round" stroke-linejoin="round"/>
</svg>
