<svg width="48" height="48" viewBox="0 0 48 48" fill="none" xmlns="http://www.w3.org/2000/svg">
<path fill-rule="evenodd" clip-rule="evenodd" d="M24 4C35.0458 4 44.0001 12.9543 44.0001 24C44.0001 35.0456 35.0458 44 24 44C12.9544 44 4.00003 35.0457 4.00003 24C4.00003 12.9543 12.9544 4 24 4ZM26.0044 22H22.0044V34H26.0044V22ZM24.0203 13.5C22.5622 13.5 21.5044 14.5518 21.5044 15.9723C21.5044 17.4501 22.5343 18.5 24.0203 18.5C25.4486 18.5 26.5044 17.45 26.5044 16C26.5044 14.5519 25.4486 13.5 24.0203 13.5Z" fill="#128D95"/>
</svg>
