<svg width="32" height="32" viewBox="0 0 32 32" fill="none" xmlns="http://www.w3.org/2000/svg">
<path d="M16.0001 2.66667C16.5005 2.66667 16.9939 2.69378 17.4801 2.748C17.6541 2.76726 17.8227 2.82061 17.9761 2.90501C18.1295 2.98941 18.2648 3.1032 18.3743 3.23989C18.4837 3.37658 18.5652 3.53349 18.614 3.70165C18.6628 3.86982 18.678 4.04595 18.6587 4.22C18.6395 4.39405 18.5861 4.56259 18.5017 4.71602C18.4173 4.86945 18.3035 5.00475 18.1669 5.11419C18.0302 5.22364 17.8733 5.3051 17.7051 5.35391C17.5369 5.40272 17.3608 5.41793 17.1867 5.39867C14.9895 5.15286 12.7701 5.59592 10.8356 6.66656C8.90118 7.73721 7.34722 9.38252 6.3887 11.3749C5.43019 13.3673 5.11448 15.6084 5.48527 17.788C5.85606 19.9677 6.895 21.9783 8.4584 23.5417C10.0218 25.1051 12.0324 26.144 14.2121 26.5148C16.3917 26.8856 18.6327 26.5699 20.6252 25.6114C22.6176 24.6529 24.2629 23.0989 25.3335 21.1644C26.4042 19.23 26.8472 17.0106 26.6014 14.8133C26.5822 14.6393 26.5974 14.4632 26.6462 14.295C26.695 14.1268 26.7764 13.9699 26.8859 13.8332C27.1069 13.5572 27.4286 13.3802 27.7801 13.3413C28.1316 13.3024 28.4841 13.4048 28.7602 13.6258C28.8969 13.7353 29.0107 13.8706 29.0951 14.024C29.1795 14.1774 29.2328 14.346 29.2521 14.52C29.3054 15.0062 29.3325 15.4996 29.3334 16C29.3334 23.364 23.3641 29.3333 16.0001 29.3333C8.63608 29.3333 2.66675 23.364 2.66675 16C2.66675 8.636 8.63608 2.66667 16.0001 2.66667ZM15.9574 10.5027C16.0453 10.845 15.9937 11.2081 15.8139 11.5124C15.6342 11.8167 15.341 12.0371 14.9987 12.1253C14.0586 12.3716 13.2401 12.9516 12.6961 13.7569C12.1521 14.5623 11.9198 15.5381 12.0423 16.5023C12.1649 17.4664 12.6341 18.353 13.3624 18.9966C14.0906 19.6402 15.0282 19.9969 16.0001 20C16.8872 20.0004 17.7492 19.7059 18.4506 19.1628C19.152 18.6197 19.653 17.8589 19.8747 17C19.9693 16.6645 20.1914 16.3793 20.4936 16.2056C20.7958 16.0318 21.154 15.9834 21.4916 16.0705C21.8291 16.1577 22.119 16.3736 22.2993 16.6719C22.4796 16.9703 22.5359 17.3273 22.4561 17.6667C22.0471 19.2346 21.0812 20.5999 19.739 21.5077C18.3967 22.4155 16.7699 22.8035 15.1624 22.5993C13.555 22.3952 12.0768 21.6128 11.0041 20.3983C9.93138 19.1838 9.33751 17.6204 9.33341 16C9.33319 14.5219 9.82422 13.0855 10.7293 11.9169C11.6344 10.7482 12.9022 9.91354 14.3334 9.544C14.503 9.50029 14.6795 9.49042 14.8529 9.51494C15.0263 9.53947 15.1932 9.59791 15.344 9.68693C15.4948 9.77596 15.6266 9.89382 15.7318 10.0338C15.8371 10.1737 15.9137 10.3331 15.9574 10.5027ZM24.6721 2.836C24.9155 2.93691 25.1235 3.10765 25.2699 3.32668C25.4163 3.54571 25.4945 3.80321 25.4947 4.06667V6.50667H27.9334C28.1971 6.50672 28.4548 6.58495 28.674 6.73146C28.8932 6.87798 29.0641 7.08619 29.165 7.32979C29.2659 7.57339 29.2923 7.84144 29.2409 8.10004C29.1894 8.35865 29.0625 8.5962 28.8761 8.78267L24.1601 13.4933C23.9101 13.7434 23.571 13.8839 23.2174 13.884H20.0001L17.5627 16.3227C17.3126 16.5729 16.9732 16.7134 16.6194 16.7134C16.2656 16.7134 15.9263 16.5729 15.6761 16.3227C15.4259 16.0725 15.2853 15.7332 15.2853 15.3793C15.2853 15.0255 15.4259 14.6862 15.6761 14.436L18.1147 12V8.78133C18.1148 8.42774 18.2553 8.08866 18.5054 7.83867L23.2187 3.124C23.4052 2.93742 23.6428 2.81034 23.9015 2.75884C24.1602 2.70734 24.4284 2.73373 24.6721 2.83467M22.8281 7.284L20.7814 9.33333V11.2187H22.6667L24.7147 9.172H24.1614C23.8078 9.172 23.4687 9.03152 23.2186 8.78148C22.9686 8.53143 22.8281 8.19229 22.8281 7.83867V7.284Z" fill="#128D95"/>
</svg>
