<svg width="80" height="80" viewBox="0 0 80 80" fill="none" xmlns="http://www.w3.org/2000/svg">
<circle cx="40" cy="40" r="40" fill="#C9EAED"/>
<path d="M39.634 33.635L32.634 26.635L39.634 19.635L46.634 26.635L39.634 33.635ZM17.634 55.635V47.635C17.634 46.5017 18.026 45.5517 18.81 44.785C19.594 44.0183 20.5354 43.635 21.634 43.635H28.184C28.8507 43.635 29.484 43.8017 30.084 44.135C30.684 44.4683 31.1674 44.9183 31.534 45.485C32.5007 46.785 33.6927 47.8017 35.11 48.535C36.5274 49.2683 38.0354 49.635 39.634 49.635C41.2674 49.635 42.7927 49.2683 44.21 48.535C45.6274 47.8017 46.802 46.785 47.734 45.485C48.1674 44.9183 48.676 44.4683 49.26 44.135C49.844 43.8017 50.452 43.635 51.084 43.635H57.634C58.7674 43.635 59.7174 44.0183 60.484 44.785C61.2507 45.5517 61.634 46.5017 61.634 47.635V55.635H47.634V51.085C46.4674 51.9183 45.2087 52.5517 43.858 52.985C42.5074 53.4183 41.0994 53.635 39.634 53.635C38.2007 53.635 36.8007 53.4103 35.434 52.961C34.0674 52.5117 32.8007 51.8697 31.634 51.035V55.635H17.634ZM23.634 41.635C21.9674 41.635 20.5507 41.0517 19.384 39.885C18.2174 38.7183 17.634 37.3017 17.634 35.635C17.634 33.935 18.2174 32.5103 19.384 31.361C20.5507 30.2117 21.9674 29.6363 23.634 29.635C25.334 29.635 26.7594 30.2103 27.91 31.361C29.0607 32.5117 29.6354 33.9363 29.634 35.635C29.634 37.3017 29.0594 38.7183 27.91 39.885C26.7607 41.0517 25.3354 41.635 23.634 41.635ZM55.634 41.635C53.9674 41.635 52.5507 41.0517 51.384 39.885C50.2174 38.7183 49.634 37.3017 49.634 35.635C49.634 33.935 50.2174 32.5103 51.384 31.361C52.5507 30.2117 53.9674 29.6363 55.634 29.635C57.334 29.635 58.7594 30.2103 59.91 31.361C61.0607 32.5117 61.6354 33.9363 61.634 35.635C61.634 37.3017 61.0594 38.7183 59.91 39.885C58.7607 41.0517 57.3354 41.635 55.634 41.635Z" fill="#37B7C0"/>
</svg>
