<svg width="80" height="80" viewBox="0 0 80 80" fill="none" xmlns="http://www.w3.org/2000/svg">
<circle cx="40" cy="40" r="40" fill="#C9EAED"/>
<path d="M57.634 37.641H57.282L53.636 26.975L22.342 37.641L21.634 37.635M20.634 37.643H21.634L43.926 19.835L49.56 27.735" stroke="#37B7C0" stroke-width="4" stroke-linecap="square"/>
<path d="M44.634 47.635C44.634 48.9611 44.1072 50.2329 43.1696 51.1705C42.2319 52.1082 40.9601 52.635 39.634 52.635C38.308 52.635 37.0362 52.1082 36.0985 51.1705C35.1608 50.2329 34.634 48.9611 34.634 47.635C34.634 46.3089 35.1608 45.0372 36.0985 44.0995C37.0362 43.1618 38.308 42.635 39.634 42.635C40.9601 42.635 42.2319 43.1618 43.1696 44.0995C44.1072 45.0372 44.634 46.3089 44.634 47.635Z" stroke="#37B7C0" stroke-width="4" stroke-linecap="square"/>
<path d="M58.634 37.635V57.635H20.634V37.635H58.634Z" stroke="#37B7C0" stroke-width="4" stroke-linecap="square"/>
<path d="M20.634 37.635H24.634C24.634 38.6959 24.2126 39.7133 23.4625 40.4634C22.7123 41.2136 21.6949 41.635 20.634 41.635V37.635ZM58.634 37.635H54.634C54.634 38.6959 55.0555 39.7133 55.8056 40.4634C56.5558 41.2136 57.5732 41.635 58.634 41.635V37.635ZM20.634 57.635H24.638C24.6386 57.109 24.5354 56.5881 24.3343 56.1021C24.1333 55.6161 23.8384 55.1745 23.4665 54.8026C23.0946 54.4307 22.6529 54.1358 22.1669 53.9347C21.6809 53.7337 21.16 53.6305 20.634 53.631V57.635ZM58.634 57.635H54.634C54.634 56.5741 55.0555 55.5567 55.8056 54.8066C56.5558 54.0564 57.5732 53.635 58.634 53.635V57.635Z" stroke="#37B7C0" stroke-width="4" stroke-linecap="square"/>
</svg>
