<svg width="80" height="80" viewBox="0 0 80 80" fill="none" xmlns="http://www.w3.org/2000/svg">
<circle cx="40" cy="40" r="40" fill="#C9EAED"/>
<path d="M37.3407 24.2488V57.8465C37.34 58.889 37.004 59.8978 36.3918 60.6951C35.7797 61.4924 34.9306 62.0272 33.9943 62.2051C33.058 62.3831 32.0945 62.1928 31.2735 61.6679C30.4525 61.1429 29.8267 60.317 29.5064 59.3355L24.5839 43.8672M24.5839 43.8672C22.6379 42.9595 21.0375 41.3446 20.0535 39.2912C19.0696 37.2378 18.7626 34.8746 19.1844 32.6014C19.6062 30.3282 20.731 28.2847 22.3683 26.8168C24.0057 25.3488 26.0551 24.5464 28.1697 24.5455H32.37C41.7702 24.5455 49.8521 21.4418 53.3898 17V52.2125C49.8521 47.7707 41.7725 44.667 32.37 44.667H28.1697C26.9378 44.6681 25.7182 44.3945 24.5839 43.8672ZM53.3898 42.1518C55.214 42.1518 56.9635 41.3568 58.2535 39.9418C59.5434 38.5267 60.268 36.6075 60.268 34.6063C60.268 32.6051 59.5434 30.6858 58.2535 29.2708C56.9635 27.8557 55.214 27.0607 53.3898 27.0607" stroke="#37B7C0" stroke-width="4" stroke-linecap="round" stroke-linejoin="round"/>
</svg>
