<svg width="80" height="80" viewBox="0 0 80 80" fill="none" xmlns="http://www.w3.org/2000/svg">
<circle cx="40" cy="40" r="40" fill="#C9EAED"/>
<path d="M28.634 39.2251C39.202 19.5291 52.36 19.3011 57.62 21.6491C59.968 26.9091 59.74 40.0671 40.044 50.6351C39.84 49.4611 38.704 46.3851 35.794 43.4751C32.884 40.5651 29.808 39.4291 28.634 39.2251Z" stroke="#37B7C0" stroke-width="4" stroke-linecap="round" stroke-linejoin="round"/>
<path d="M42.634 50.235C46.72 52.101 47.154 55.449 47.722 58.635C47.722 58.635 56.278 52.731 50.806 44.635M29.034 36.635C27.168 32.549 23.82 32.113 20.634 31.547C20.634 31.547 26.538 22.991 34.634 28.463M27.052 44.635C25.788 45.899 23.64 49.563 25.156 54.113C29.706 55.629 33.37 53.481 34.634 52.217" stroke="#37B7C0" stroke-width="4" stroke-linecap="round" stroke-linejoin="round"/>
<path d="M50.824 32.141C50.824 31.6559 50.7284 31.1756 50.5428 30.7274C50.3571 30.2792 50.085 29.872 49.742 29.529C49.399 29.1859 48.9918 28.9139 48.5436 28.7282C48.0954 28.5426 47.6151 28.447 47.13 28.447C46.6449 28.447 46.1645 28.5426 45.7163 28.7282C45.2682 28.9139 44.8609 29.1859 44.5179 29.529C44.1749 29.872 43.9028 30.2792 43.7172 30.7274C43.5315 31.1756 43.436 31.6559 43.436 32.141C43.436 33.1207 43.8252 34.0603 44.5179 34.7531C45.2107 35.4458 46.1503 35.835 47.13 35.835C48.1097 35.835 49.0493 35.4458 49.742 34.7531C50.4348 34.0603 50.824 33.1207 50.824 32.141Z" stroke="#37B7C0" stroke-width="4"/>
</svg>
