<svg width="48" height="48" viewBox="0 0 48 48" fill="none" xmlns="http://www.w3.org/2000/svg">
<path fill-rule="evenodd" clip-rule="evenodd" d="M11.658 18.17C14.066 18.006 16.261 19.596 16.627 22.15C16.832 23.581 17 25.629 17 28.5C17 31.372 16.832 33.42 16.627 34.851C16.244 37.525 13.855 39.142 11.317 38.795C8.95001 38.471 6.61801 37.827 5.11001 37.357C3.40801 36.827 1.98301 35.47 1.55801 33.586C1.18586 31.9163 0.998736 30.2107 1.00001 28.5C1.00001 26.412 1.28001 24.652 1.55801 23.415C1.93101 21.76 3.07501 20.513 4.50001 19.874C4.57201 9.69 13.3 1.5 24 1.5C34.7 1.5 43.428 9.69 43.5 19.874C44.925 20.513 46.069 21.76 46.442 23.414C46.721 24.652 47 26.412 47 28.5C47 30.588 46.72 32.348 46.442 33.586C46.039 35.374 44.736 36.686 43.15 37.269C42.092 40.738 39.99 43.136 36.73 44.591C33.5 46.031 29.238 46.498 24 46.498C23.4696 46.498 22.9609 46.2873 22.5858 45.9122C22.2107 45.5371 22 45.0284 22 44.498C22 43.9676 22.2107 43.4589 22.5858 43.0838C22.9609 42.7087 23.4696 42.498 24 42.498C29.13 42.498 32.679 42.018 35.1 40.938C36.4 40.358 37.4 39.595 38.15 38.556C37.666 38.6467 37.1773 38.7267 36.684 38.796C34.145 39.142 31.756 37.525 31.374 34.851C31.168 33.42 31 31.371 31 28.501C31 25.629 31.168 23.581 31.373 22.149C31.739 19.596 33.934 18.006 36.343 18.17C35.39 12.714 30.257 8.5 24 8.5C17.743 8.5 12.609 12.714 11.658 18.17ZM11.858 22.168C12.133 22.131 12.32 22.202 12.43 22.282C12.534 22.357 12.634 22.485 12.667 22.716C12.84 23.926 13 25.781 13 28.5C13 31.22 12.84 33.074 12.667 34.284C12.634 34.515 12.533 34.644 12.43 34.719C12.32 34.799 12.133 34.869 11.858 34.832C9.80601 34.552 7.71301 33.978 6.30001 33.538C5.81701 33.388 5.53901 33.055 5.46001 32.707C5.15292 31.3258 4.99866 29.915 5.00001 28.5C5.00001 26.764 5.23301 25.303 5.46001 24.294C5.53901 23.946 5.81701 23.613 6.30001 23.462C7.71301 23.022 9.80601 22.449 11.858 22.168ZM35.57 22.282C35.467 22.357 35.366 22.485 35.333 22.716C35.16 23.926 35 25.781 35 28.5C35 31.22 35.16 33.074 35.333 34.284C35.366 34.515 35.467 34.644 35.57 34.719C35.68 34.799 35.867 34.869 36.142 34.832C38.194 34.552 40.287 33.978 41.7 33.538C42.183 33.388 42.461 33.055 42.54 32.707C42.767 31.697 43 30.237 43 28.5C43.0013 27.0854 42.847 25.6749 42.54 24.294C42.461 23.946 42.183 23.613 41.7 23.462C40.287 23.022 38.194 22.449 36.142 22.168C35.867 22.131 35.68 22.202 35.57 22.282Z" fill="#128D95"/>
</svg>
