<svg width="42" height="42" viewBox="0 0 42 42" fill="none" xmlns="http://www.w3.org/2000/svg">
<path d="M34.125 7.875C32.6949 9.24298 30.9941 10.2963 29.1322 10.9672C27.1687 11.3137 21.735 8.79375 19.0575 11.3662C18.6113 11.8125 18.06 12.2588 17.4825 12.705C16.2225 12.1538 14.28 11.3138 12.8625 10.5C11.445 9.68625 7.875 7.875 7.875 7.875L0 17.0625C0 17.0625 1.9425 19.6875 3.15 21.42C3.9375 22.575 4.90875 24.3338 5.53875 25.515L4.64625 26.565C4.43404 26.9899 4.35799 27.47 4.42845 27.9397C4.49891 28.4094 4.71245 28.846 5.04 29.19C5.41911 29.4758 5.88122 29.63 6.35601 29.6291C6.8308 29.6281 7.29228 29.4721 7.67025 29.1848C7.52991 29.3491 7.42369 29.5397 7.3578 29.7455C7.29192 29.9513 7.26767 30.1682 7.28649 30.3834C7.3053 30.5987 7.3668 30.8081 7.46739 30.9993C7.56798 31.1906 7.70566 31.3599 7.87238 31.4974C8.27376 31.7299 8.72959 31.8519 9.19346 31.851C9.65733 31.8501 10.1127 31.7262 10.5131 31.4921C10.2132 31.866 10.0491 32.3305 10.0477 32.8098C10.0462 33.2891 10.2076 33.7546 10.5052 34.1302C10.8921 34.2646 11.3049 34.3075 11.7111 34.2556C12.1174 34.2037 12.5061 34.0583 12.8468 33.831C12.6762 34.2328 12.6318 34.6769 12.7195 35.1044C12.8072 35.532 13.0227 35.9228 13.3376 36.225C13.7819 36.4206 14.2684 36.5009 14.7519 36.4587C15.2355 36.4165 15.7007 36.2531 16.1044 35.9835L17.4589 34.7576C18.6979 35.9914 20.4068 36.7552 22.2941 36.7552L22.4542 36.7526C23.0763 36.6998 23.6723 36.4786 24.1782 36.1129C24.6841 35.7471 25.0809 35.2504 25.326 34.6763C25.7092 34.8233 26.145 34.923 26.607 34.923C27.2265 34.923 27.8014 34.7445 28.287 34.4374C29.8226 33.4215 29.4551 32.634 29.4551 32.634C30.0012 32.869 30.6077 32.9248 31.1875 32.7932C31.7672 32.6616 32.2902 32.3494 32.6812 31.9016C33.0876 31.4859 33.3438 30.9467 33.4094 30.3691C33.475 29.7915 33.3463 29.2085 33.0435 28.7122C33.0603 28.7216 33.0794 28.7261 33.0986 28.7254C34.2038 28.7254 35.1645 28.1164 35.6659 27.2186C35.9136 26.5807 35.9974 25.8909 35.9099 25.2123C35.8223 24.5336 35.566 23.8877 35.1645 23.3336L35.1724 23.3468C37.3249 22.9268 37.2461 21.8505 38.2961 20.2755C39.2891 18.989 40.5264 17.9114 41.937 17.1045L34.125 7.875ZM33.9937 26.4075C32.8387 27.5625 31.9463 27.0637 29.9775 25.5675C28.0088 24.0712 24.0975 21.2625 24.0975 21.2625C24.2576 22.0631 24.6278 22.7587 25.1501 23.3126C25.9875 24.255 28.4813 26.4075 29.6625 27.51C30.3975 28.1925 32.2875 29.5575 31.185 30.6075C30.0825 31.6575 29.2162 30.6075 27.405 29.1375C25.5937 27.6675 21.5513 24.045 21.5513 24.045C21.5295 24.3922 21.5814 24.7401 21.7035 25.0658C21.8257 25.3915 22.0153 25.6877 22.26 25.935C22.7062 26.46 25.2 28.875 26.25 29.9775C27.3 31.08 28.2187 31.7363 27.3262 32.6025C26.4337 33.4688 24.6225 32.1038 23.625 31.08C22.0763 29.5838 19.005 26.8013 19.005 26.8013L19.0024 26.9404C19.0024 27.6859 19.2596 28.3684 19.6927 28.9091C20.4487 29.9014 21.9187 31.1876 22.8112 32.1851C23.7037 33.1826 24.2287 34.0226 22.8112 34.8101C21.3937 35.5976 19.2937 33.6551 18.375 32.7101V32.7049C18.3779 32.4451 18.2843 32.1936 18.1125 31.9987C17.7979 31.7089 17.4105 31.5099 16.9917 31.423C16.5728 31.336 16.1382 31.3645 15.7342 31.5052C15.9 31.3563 16.0329 31.1744 16.1243 30.9711C16.2158 30.7678 16.2637 30.5477 16.2652 30.3249C16.2667 30.102 16.2216 29.8813 16.1329 29.6768C16.0442 29.4723 15.9138 29.2887 15.75 29.1375C15.4054 28.8764 14.9849 28.7354 14.5526 28.7358C14.1203 28.7363 13.7 28.8783 13.356 29.1401C13.5299 28.974 13.6642 28.7708 13.7488 28.5456C13.8335 28.3205 13.8663 28.0791 13.8449 27.8395C13.8234 27.5999 13.7483 27.3683 13.625 27.1617C13.5018 26.9551 13.3335 26.779 13.1329 26.6464C12.663 26.3511 12.1115 26.2124 11.5578 26.2501C11.0041 26.2878 10.4766 26.5001 10.0511 26.8564C10.3355 26.5117 10.4757 26.0704 10.4425 25.6248C10.4092 25.1792 10.205 24.7636 9.87262 24.465C9.45865 24.082 8.93232 23.8425 8.37159 23.782C7.81086 23.7214 7.24554 23.8431 6.75938 24.129L5.01375 21.1811C3.80625 19.2649 2.38875 17.2699 2.38875 17.2699L8.37375 9.99863C8.37375 9.99863 10.5 11.3111 12.2588 12.3086C13.125 12.8074 14.6212 13.4636 15.75 13.9886C13.965 15.3274 12.4688 16.6136 12.915 17.5061C13.7097 18.0784 14.6603 18.3941 15.6394 18.411C16.6185 18.4279 17.5794 18.1452 18.3934 17.6006C19.437 16.9049 20.6645 16.5366 21.9188 16.5428C22.8296 16.5428 23.6959 16.7318 24.4808 17.0756C25.935 18.0574 28.6125 20.4724 31.0537 21.9949C34.125 24.2261 34.7287 25.6699 33.9937 26.4049V26.4075Z" fill="#128D95"/>
</svg>
