<svg width="32" height="32" viewBox="0 0 32 32" fill="none" xmlns="http://www.w3.org/2000/svg">
<path fill-rule="evenodd" clip-rule="evenodd" d="M4.00001 5.33331H28C28.3536 5.33331 28.6928 5.47379 28.9428 5.72384C29.1929 5.97389 29.3333 6.31302 29.3333 6.66665V25.3333C29.3333 25.6869 29.1929 26.0261 28.9428 26.2761C28.6928 26.5262 28.3536 26.6666 28 26.6666H4.00001C3.64638 26.6666 3.30724 26.5262 3.0572 26.2761C2.80715 26.0261 2.66667 25.6869 2.66667 25.3333V6.66665C2.66667 6.31302 2.80715 5.97389 3.0572 5.72384C3.30724 5.47379 3.64638 5.33331 4.00001 5.33331ZM25.3747 7.88531L16.208 15.2186C16.1489 15.2658 16.0756 15.2915 16 15.2915C15.9244 15.2915 15.8511 15.2658 15.792 15.2186L6.62534 7.88531L5.37467 9.44798L14.5427 16.7813C14.9564 17.1122 15.4703 17.2924 16 17.2924C16.5297 17.2924 17.0437 17.1122 17.4573 16.7813L26.6253 9.44798L25.3747 7.88531Z" fill="#128D95"/>
</svg>
