<svg width="38" height="38" viewBox="0 0 38 38" fill="none" xmlns="http://www.w3.org/2000/svg">
<path d="M35.5617 9.49992C34.3425 10.0541 33.0284 10.4183 31.6667 10.5924C33.06 9.75325 34.1367 8.42325 34.6434 6.82409C33.3292 7.61575 31.8725 8.16992 30.3367 8.48659C29.0859 7.12492 27.3284 6.33325 25.3334 6.33325C21.6125 6.33325 18.5725 9.37325 18.5725 13.1258C18.5725 13.6641 18.6359 14.1866 18.7467 14.6774C13.11 14.3924 8.09085 11.6849 4.75002 7.58409C4.16419 8.58159 3.83169 9.75325 3.83169 10.9883C3.83169 13.3474 5.01919 15.4374 6.85585 16.6249C5.73169 16.6249 4.68669 16.3083 3.76835 15.8333V15.8808C3.76835 19.1741 6.11169 21.9291 9.21502 22.5466C8.21885 22.8204 7.17258 22.8583 6.15919 22.6574C6.58923 24.0072 7.43145 25.1882 8.56746 26.0346C9.70347 26.8809 11.0761 27.3499 12.4925 27.3758C10.0917 29.2766 7.11554 30.304 4.05335 30.2891C3.51502 30.2891 2.97669 30.2574 2.43835 30.1941C5.44669 32.1258 9.02502 33.2499 12.8567 33.2499C25.3334 33.2499 32.1892 22.8949 32.1892 13.9174C32.1892 13.6166 32.1892 13.3316 32.1734 13.0308C33.5034 12.0808 34.6434 10.8774 35.5617 9.49992Z" fill="#37B7C0"/>
</svg>
